<?xml version="1.0" encoding="utf-8"?>
<!-- Generator: Adobe Illustrator 24.0.0, SVG Export Plug-In . SVG Version: 6.00 Build 0)  -->
<svg version="1.1" id="Layer_1" xmlns="http://www.w3.org/2000/svg" xmlns:xlink="http://www.w3.org/1999/xlink" x="0px" y="0px"
	 viewBox="0 0 512 512" style="enable-background:new 0 0 512 512;" xml:space="preserve">
<path d="M426,0H86C38.6,0,0.5,39,0.5,85.5v341c0,47.4,39,85.5,85.5,85.5h340c47.4,0,85.5-39,85.5-85.5v-341
	C511.5,38.1,472.5,0,426,0z M149.6,217.3V198h19.3v-38.7h19.3v-38.7h135.4v19.3h-19.3v19.3H285v19.3h-19.3V198v19.3H285h19.3v19.3
	H285V256h-19.3v19.3h-19.3v-38.7H227h-19.3h-19.3h-19.3h-19.3V217.3z M110.9,275.3h96.7v19.3h-96.7V275.3z M401.1,217.3h-19.3v19.3
	h-19.3V256h-19.3v19.3h-19.3v19.3h-19.3V314H285v19.3h-19.3v19.3h-19.3v19.3H227v19.3h-19.3v19.3h-19.3v19.3h-19.3v-19.3v-19.3h19.3
	v-19.3h19.3v-19.3H227v-19.3h19.3V314h19.3v-19.3H285v-19.3h19.3V256h19.3v-19.3h19.3v-19.3h19.3V198h19.3h19.3V217.3z M420.4,120.6
	h-19.3v19.3h-19.3v19.3h-19.3v19.3h-38.7v-19.3h19.3v-19.3h19.3v-19.3h19.3v-19.3h19.3h19.3V120.6z"/>
</svg>
