<?xml version="1.0" encoding="utf-8"?>
<!-- Generator: Adobe Illustrator 24.0.0, SVG Export Plug-In . SVG Version: 6.00 Build 0)  -->
<svg version="1.1" id="Layer_1" xmlns="http://www.w3.org/2000/svg" xmlns:xlink="http://www.w3.org/1999/xlink" x="0px" y="0px"
	 viewBox="0 0 512 512" style="enable-background:new 0 0 512 512;" xml:space="preserve">
<g>
	<path d="M293.3,327c-5.1-2.1-7.5-8-5.4-13.1c2.1-5.1,8-7.5,13.1-5.4l63.2,26.5l75.9-31.9l-200.1-84v63.7l33.3,14
		c5.1,2.1,7.5,8,5.4,13.1c-2.1,5.1-8,7.5-13.1,5.4L230,300.4l-58.4,24.5L280,370.4l58.4-24.5L293.3,327z"/>
	<polygon points="54,361 270,451.6 270,387.9 54,297.3 	"/>
	<path d="M234,93.5l162.8,68.3l43.4-18.2L230,55.5l-43.4,18.2L234,93.5C233.9,93.5,233.9,93.5,234,93.5z"/>
	<polygon points="220,282.9 220,219.2 69.8,282.2 145.8,314.1 	"/>
	<polygon points="290,451.6 456,382 456,318.2 290,387.9 	"/>
	<path d="M396.8,182.7c-1.3,0-2.7-0.3-3.9-0.8L240,117.8v79.8l216,90.6V158.7l-55.4,23.2C399.4,182.4,398.1,182.7,396.8,182.7z"/>
	<path d="M426,0H86C38.6,0,0.5,39,0.5,85.5v341c0,47.4,39,85.5,85.5,85.5h340c47.4,0,85.5-39,85.5-85.5v-341
		C511.5,38.1,472.5,0,426,0z M476,303.1c0,0,0,0.1,0,0.1v85.4c0,4-2.4,7.7-6.1,9.2l-186,78c-0.6,0.3-1.3,0.5-2,0.6
		c-0.1,0-0.1,0-0.2,0c-0.3,0-0.5,0.1-0.8,0.1c-0.3,0-0.7,0-1,0s-0.7,0-1,0c-0.3,0-0.5-0.1-0.8-0.1c-0.1,0-0.1,0-0.2,0
		c-0.7-0.1-1.3-0.3-2-0.6l-235.9-99c-3.7-1.6-6.1-5.2-6.1-9.2v-85.4c0-0.4,0-0.8,0.1-1.2c0-0.1,0-0.2,0-0.3c0-0.3,0.1-0.6,0.2-0.8
		c0-0.1,0.1-0.2,0.1-0.3c0.1-0.3,0.2-0.5,0.3-0.8c0-0.1,0.1-0.2,0.1-0.3c0.1-0.3,0.3-0.7,0.5-1c0-0.1,0.1-0.1,0.1-0.1
		c0.2-0.3,0.3-0.5,0.5-0.8c0.1-0.1,0.1-0.2,0.2-0.3c0.2-0.2,0.3-0.4,0.5-0.7c0.1-0.1,0.1-0.1,0.2-0.2c0.2-0.2,0.5-0.5,0.7-0.7
		c0,0,0.1-0.1,0.1-0.1c0.3-0.3,0.6-0.5,0.9-0.7c0,0,0,0,0,0c0,0,0.1,0,0.1-0.1c0.3-0.2,0.5-0.3,0.8-0.5c0.1-0.1,0.2-0.1,0.4-0.2
		c0.1-0.1,0.2-0.1,0.4-0.2L220,197.5v-88.2l-63.1-26.5c-3.7-1.6-6.1-5.2-6.1-9.2s2.4-7.7,6.1-9.2l69.2-29c0,0,0,0,0,0
		c0.3-0.1,0.5-0.2,0.8-0.3c0,0,0.1,0,0.1,0c0.6-0.2,1.3-0.3,1.9-0.4c0,0,0.1,0,0.1,0c1.5-0.1,2.9,0.1,4.4,0.6c0.1,0,0.2,0.1,0.3,0.1
		c0,0,0,0,0.1,0l236,99c0,0,0.1,0,0.1,0.1c0.4,0.2,0.7,0.3,1,0.5c0.1,0,0.2,0.1,0.3,0.2c0.4,0.2,0.7,0.5,1.1,0.8
		c0,0,0.1,0.1,0.1,0.1c0.3,0.3,0.6,0.5,0.8,0.8c0.1,0.1,0.1,0.1,0.2,0.2c0.3,0.3,0.6,0.7,0.8,1c0,0,0.1,0.1,0.1,0.1
		c0.2,0.3,0.4,0.6,0.6,1c0.1,0.1,0.1,0.2,0.2,0.3c0,0.1,0.1,0.2,0.1,0.3c0.1,0.3,0.2,0.6,0.3,0.9c0,0,0,0,0,0
		c0.1,0.4,0.2,0.9,0.3,1.3c0,0.1,0,0.2,0,0.3c0.1,0.5,0.1,0.9,0.1,1.4V303.1z"/>
</g>
</svg>
