<?xml version="1.0" encoding="utf-8"?>
<!-- Generator: Adobe Illustrator 24.0.0, SVG Export Plug-In . SVG Version: 6.00 Build 0)  -->
<svg version="1.1"
	 id="Layer_1" xmlns:cc="http://creativecommons.org/ns#" xmlns:dc="http://purl.org/dc/elements/1.1/" xmlns:inkscape="http://www.inkscape.org/namespaces/inkscape" xmlns:rdf="http://www.w3.org/1999/02/22-rdf-syntax-ns#" xmlns:sodipodi="http://sodipodi.sourceforge.net/DTD/sodipodi-0.dtd" xmlns:svg="http://www.w3.org/2000/svg"
	 xmlns="http://www.w3.org/2000/svg" xmlns:xlink="http://www.w3.org/1999/xlink" x="0px" y="0px" viewBox="0 0 294.9 53.7"
	 style="enable-background:new 0 0 294.9 53.7;" xml:space="preserve">
<style type="text/css">
	.st0{fill:#FFFFFF;}
</style>
<sodipodi:namedview  bordercolor="#666666" borderopacity="1" fit-margin-bottom="0" fit-margin-left="0" fit-margin-right="0" fit-margin-top="0" gridtolerance="10" guidetolerance="10" id="namedview19" inkscape:current-layer="Layer_1" inkscape:cx="61.788618" inkscape:cy="40" inkscape:pageopacity="0" inkscape:pageshadow="2" inkscape:window-height="1001" inkscape:window-maximized="1" inkscape:window-width="1920" inkscape:window-x="-9" inkscape:window-y="-9" inkscape:zoom="0.76875" objecttolerance="10" pagecolor="#ffffff" showgrid="false">
	</sodipodi:namedview>
<polygon class="st0" points="0,53.7 0,38.4 19.2,38.4 19.2,34.5 0,34.5 0,0 34.5,0 34.5,15.3 15.3,15.3 15.3,19.2 34.5,19.2 
	34.5,53.7 "/>
<path id="path2" inkscape:connector-curvature="0" d="M31.6,12.4V2.8H2.8v28.8H22v9.6H2.8v9.6h28.8V22H12.4v-9.6H31.6z M23.2,31.6
	l1.2-1.2v13.2H5.2v4.8L4,49.6v-7.2h19.2V31.6z M5.2,5.2v24L4,30.4V4h26.4l-1.2,1.2H5.2z"/>
<polygon class="st0" points="57.6,53.7 57.6,34.5 53.7,34.5 53.7,53.7 38.4,53.7 38.4,0 53.7,0 53.7,19.2 57.6,19.2 57.6,0 72.9,0 
	72.9,53.7 "/>
<path id="path4" inkscape:connector-curvature="0" d="M60.4,2.8V22h-9.6V2.8h-9.6v48h9.6V31.6h9.6v19.2H70v-48H60.4z M43.6,5.2v43.2
	l-1.2,1.2V4h7.2l-1.2,1.2H43.6z M67.6,5.2h-4.8v19.2h-7.2l1.2-1.2h4.8V4h7.2L67.6,5.2z"/>
<path class="st0" d="M76.8,53.7V0h34.5v53.7H76.8z M96,38.4V15.3h-3.9v23.1H96z"/>
<path id="path6" inkscape:connector-curvature="0" d="M79.6,2.8v48h28.8v-48H79.6z M82,12.4l-1.2,1.2V4h9.6l-1.2,1.2H82L82,12.4z
	 M89.2,12.4h9.6v28.8h-9.6V12.4z M101.2,43.6h-8.4l1.2-1.2h6v-6l1.2-1.2V43.6z"/>
<path class="st0" d="M115.2,53.7V0h34.5v53.7H115.2z M134.4,38.4V15.3h-3.9v23.1H134.4z"/>
<path id="path8" inkscape:connector-curvature="0" d="M118,2.8v48h28.8v-48H118z M120.4,12.4l-1.2,1.2V4h9.6l-1.2,1.2h-7.2
	L120.4,12.4z M127.6,12.4h9.6v28.8h-9.6V12.4z M139.6,43.6h-8.4l1.2-1.2h6v-6l1.2-1.2V43.6z"/>
<polygon class="st0" points="163.2,53.7 163.2,15.3 153.6,15.3 153.4,0 188.1,0 188.1,15.3 178.5,15.3 178.5,53.7 "/>
<path id="path10" inkscape:connector-curvature="0" d="M156.3,2.8l0.1,9.6h9.6v38.4h9.6V12.4h9.6V2.8H156.3z M167.2,5.2h-8.4V10
	l-1.2,1.2V4h10.8L167.2,5.2z"/>
<path class="st0" d="M220.8,53.7l0.1-19.2h-13.6v19.2H192V0h34.3l0.1,19.2h9.6v34.5H220.8z M211.2,19.2v-3.9h-3.9v3.9H211.2z"/>
<path id="path12" inkscape:connector-curvature="0" d="M223.6,22l-0.1-19.2h-28.7v48h9.6V31.6h19.3l-0.1,19.2h9.6V22H223.6z
	 M197.2,5.2v7.2l-1.2,1.2V4h9.6l-1.2,1.2H197.2z M204.4,12.4h9.6V22h-9.6L204.4,12.4z M216.4,24.4h-7.2l1.2-1.2h4.8v-4.8l1.2-1.2
	L216.4,24.4z"/>
<rect x="240" y="0" class="st0" width="15" height="53.7"/>
<path id="path14" inkscape:connector-curvature="0" d="M242.8,2.8v48h9.4v-48H242.8z M250,5.2h-4.8V22l-1.2,1.2V4h7.2L250,5.2z"/>
<polygon class="st0" points="259.2,53.7 259.2,38.4 278.4,38.4 278.4,34.5 259.2,34.5 259.2,0 293.7,0 293.7,15.3 274.5,15.3 
	274.5,19.2 293.7,19.2 293.7,53.7 "/>
<path id="path16" inkscape:connector-curvature="0" d="M290.8,12.4V2.8H262v28.8h19.2v9.6H262v9.6h28.8V22h-19.2v-9.6H290.8z
	 M282.4,31.6l1.2-1.2v13.2h-19.2v4.8l-1.2,1.2v-7.2h19.2V31.6z M264.4,5.2v24l-1.2,1.2V4h26.4l-1.2,1.2L264.4,5.2z"/>
</svg>
