<?xml version="1.0" encoding="utf-8"?>
<!-- Generator: Adobe Illustrator 24.0.0, SVG Export Plug-In . SVG Version: 6.00 Build 0)  -->
<svg version="1.1" id="Layer_1" xmlns="http://www.w3.org/2000/svg" xmlns:xlink="http://www.w3.org/1999/xlink" x="0px" y="0px"
	 viewBox="0 0 512 512" style="enable-background:new 0 0 512 512;" xml:space="preserve">
<style type="text/css">
	.st0{fill:#FFFFFF;}
</style>
<g>
	<path class="st0" d="M426,0H86C38.6,0,0.5,39,0.5,85.5v341c0,47.4,39,85.5,85.5,85.5h340c47.4,0,85.5-39,85.5-85.5v-341
		C511.5,38.1,472.5,0,426,0z M420.7,439.1c-35.4,8.2-100.4,12-165.7,12h0c-65.3,0-130.4-3.8-165.7-12
		c-22.8-23.3-18.3-118-18.6-160.3c0-8.1,0.1-14,0.1-21.1l0-0.1c0.3-14,1.1-33.3,3-53.4c1.4,0.5,3.1,0.9,4.8,0.9
		c13.2,0,25.9-5.2,35.3-14.4c3.3-3.2,6.5-6.7,8.8-10.7l0,0c2.3,4,4.8,7.5,8.1,10.7c9.4,9.2,22.1,14.4,35.3,14.4
		c13.7,0,26.2-5.5,35.3-14.4c3.3-3.2,6.2-6.9,8.5-10.9l0,0c2.3,4,5.1,7.7,8.4,10.9c9.4,9.2,22.1,14.4,35.3,14.4c0.5,0,1,0,1.4,0h0
		c0.5,0,1,0,1.4,0c13.2,0,25.9-5.2,35.3-14.4c3.3-3.2,6.1-6.9,8.4-10.9c2.3,4,5.2,7.7,8.5,10.9c9.1,8.9,21.5,14.4,35.3,14.4
		c13.2,0,25.9-5.2,35.3-14.4c3.3-3.2,5.8-6.7,8.1-10.7l0,0c2.3,4,5.5,7.5,8.8,10.7c9.4,9.2,22.1,14.4,35.3,14.4
		c1.7,0,3.4-0.5,4.8-0.9c1.9,20.1,2.8,39.4,3,53.4l0,0.1c0,7.1,0.1,13,0.1,21.1C439,321.1,443.5,415.8,420.7,439.1z M472.3,146.6
		c0,23.6-22.1,44.4-42.1,44.4c-24.1,0-44.1-19.9-44.1-43.6c0,23.7-19.4,43.6-43.4,43.6c-24.1,0-42.8-19.9-42.8-43.6
		c0,23.7-20.6,43.6-44.7,43.6h-0.4c-24.1,0-44.7-19.9-44.7-43.6c0,23.7-18.7,43.6-42.8,43.6c-24.1,0-43.4-19.9-43.4-43.6
		c0,23.7-20.1,43.6-44.1,43.6c-20,0-42.1-20.8-42.1-44.4V128c0.4-11.3,37.7-54.2,56.7-65.4h0c16.8-1.5,99.8-2.4,160.7-2.4
		c60.9,0,101.7,0.3,160.7,2.4c19,11.3,56.3,54.2,56.7,65.4V146.6z"/>
	<path class="st0" d="M389.3,279.9c-18.9-53.2-46.1-53.2-52.9-53.2l0,0h0c-14.4,0-27.1,0-43,17.3c-12.5-1.3-25.5-2-38.5-1.9h0
		c-13,0-26,0.6-38.5,1.9c-15.8-17.3-28.6-17.2-43-17.3h0l0,0c-6.8,0-33.9,0-52.9,53.2l-20.3,72.9c-15.1,54.2,4.8,55.6,29.6,55.6
		c36.8-1.4,57.2-28.1,57.2-54.8c20.4,3.3,44.1,5,67.9,5h0c23.8,0,47.5-1.7,67.9-5c0,26.7,20.4,53.4,57.2,54.8
		c24.8,0,44.7-1.4,29.6-55.6L389.3,279.9z M275.3,315.7v22.1c0,1-10.2,0.6-20.3,0.1h0c-10.2,0.5-20.3,0.9-20.3-0.1v-22.1l-25.3,1
		c7-12.6,45.6-48.2,45.7-48.2v0l0,0l0,0v0c0,0,38.7,35.6,45.7,48.2L275.3,315.7z"/>
</g>
</svg>
