<?xml version="1.0" encoding="utf-8"?>
<!-- Generator: Adobe Illustrator 24.0.0, SVG Export Plug-In . SVG Version: 6.00 Build 0)  -->
<svg version="1.1" id="Layer_1" xmlns="http://www.w3.org/2000/svg" xmlns:xlink="http://www.w3.org/1999/xlink" x="0px" y="0px"
	 viewBox="0 0 512 512" style="enable-background:new 0 0 512 512;" xml:space="preserve">
<g>
	<path d="M426,0H86C38.6,0,0.5,39,0.5,85.5v341c0,47.4,39,85.5,85.5,85.5h340c47.4,0,85.5-39,85.5-85.5v-341
		C511.5,38.1,472.5,0,426,0z M469.3,136.2C469.3,136.2,469.3,136.2,469.3,136.2l-0.1,0.1c-1.4,2.1-3.2,4-5.2,5.9
		c-3.7,3.3-7.6,5.7-11.8,7.2c-0.1,0-0.1,0-0.2,0l-40.3,17.2l-0.1,0.1c0,0-0.1,0.1-0.1,0.1c-0.3,0.1-0.5,0.2-0.7,0.3
		c0,0-0.1,0.1-0.1,0.1c-2.9,1.1-6.1,1.8-9.3,1.9c-1.4,0-2.8,0-4-0.1h-0.1c-0.1,0-0.2,0-0.2-0.1c-7.5,4-15,8-22.4,12
		c-6.5,3.5-13,6.9-19.5,10.4c-2,1-4,2.1-6,3.1H349c0.7,1.6,1.8,4.8,3.3,9.8c1.2,3.9,2.1,7.7,2.7,11.6c0.3,1.9,0.5,3.8,0.7,5.8
		l10.6,1.3l-0.1-0.1h0.1c1.2,0.1,2.2,0.6,3,1.5l0.1,0.1h0.1c0.2,0.2,0.3,0.4,0.5,0.7c0.1,0.3,0.2,0.6,0.4,0.8
		c0.2,0.4,0.3,0.9,0.4,1.4c0,0.1,0,0.1,0,0.2l0.5,9.3c7.3,0.2,14.1,0.6,20.4,1.2c11.9,1.1,21.9,2.6,30.1,4.5c0.1,0,0.3,0,0.4,0.1
		l0.1,0.1c5.1,1.6,9.8,4.1,14.2,7.7c1.6,1.2,3.1,2.7,4.6,4.2c2.9,3,5.6,6.5,8.1,10.6c0.5,0.8,1.1,1.7,1.6,2.6
		c0.7,1.2,1.4,2.5,2.1,3.8c0.7,1.3,1.3,2.6,2,4l0.1,0.1c0.4,0.9,0.7,1.8,1.1,2.7c0.4,1,0.8,1.9,1.3,3h0.1c0.6,1.3,1.1,2.7,1.4,4.2
		v0.1c0,0.4,0.1,0.8,0.1,1.3v0.1c-0.2,1.3-0.8,2.4-2,3.3l-12.9,9.2c0.1,2.5,0.2,4.9,0.2,7.4c0.2,12.7-0.9,25.3-3.3,37.9
		c-1,5.5-2.4,10.9-3.9,16.2c-2.9,9.4-6.6,18.6-11.3,27.4c-7.5,14.2-17.7,26.1-30.6,35.7v0.1c-2.6,1.9-5.3,3.7-8,5.2
		c-0.4,0.2-0.7,0.2-1.1,0.2h-315c-2.4,0-4.2,0.1-5.4,0.1c-0.1,0-0.1,0-0.2,0c-0.1,0-0.1,0-0.2,0c-0.2,0-0.4,0-0.5,0h-0.1
		c0,0-0.1,0-0.1,0l-3.1-0.2c-7.2-1.2-13.3-5.8-18.5-14c0,0,0-0.1,0-0.1c-5.6-8.7-8.4-19.1-8.4-31.2c0-12.1,2.8-22.4,8.4-30.8
		c0-0.1,0.1-0.1,0.2-0.2c1.2-1.8,2.5-3.6,3.7-5.2c-0.4-7.8,0.3-15,1.9-21.6c5.5-6.2,11.7-12.7,18.6-19.5
		c10.2-10.2,21.9-21.1,35.2-32.8c0-4.3,0.1-8.5,0.2-12.5c0.2-5.7,0.4-11.3,0.6-16.6c0.3-5.7,0.7-11.4,1.1-16.8
		c0.6-7.7,1.4-15.1,2.3-22.3c0.2-1.3,0.7-2.4,1.7-3.1c1.6-1.3,3.3-2.6,4.9-3.9c2.3-1.8,4.6-3.5,6.8-5.2c4.9-3.8,9.9-7.4,14.9-10.9
		c2.1-1.5,4.1-2.9,6.2-4.3c3.9-2.7,7.7-5.3,11.6-7.8v-0.1l0.1,0.1c0-0.1,0.1-0.1,0.2-0.1c-2.2-2.7-3.6-5.5-4.4-8.6
		c-0.5-2-0.7-4.1-0.7-6.2c0.8-5.1,1.5-9.3,1.9-12.7c0.2-0.8,0.4-1.5,0.6-2.2c0.6-2.2,1.3-4.4,1.9-6.6l4.1-10.6l0.1-0.1
		c1.4-0.8,2.9-1.4,4.5-1.9c1.6-0.4,3.2-0.9,4.9-1.3c2.3-0.6,4.5-1.2,6.8-1.9h0.1c-0.4-0.7-0.7-1.5-0.7-2.4c-1.4-0.3-2.7-1-3.7-2.2
		c0,0-0.1,0-0.1-0.1l-0.4-0.7c-0.2-1.2-0.3-2.7-0.4-4.6c-0.1-1.7,0.1-4.1,0.4-7.2v-0.1c0.8-1.2,1.9-2,3.4-2.5c0.1,0,0.2-0.1,0.4-0.1
		c0,0,0-0.1,0-0.1c0.4-3.9,2.1-7.2,5.2-10c3.5-3.3,7.8-4.9,12.9-4.9c5.1,0,9.5,1.6,13.1,4.9c2.3,2.1,3.8,4.2,4.6,6.5
		c1.2,0.6,2.3,1.1,3.1,1.7c0,2.4-0.3,4.8-0.7,7.1l1.3,1.9c-0.2,2.8-0.6,5.5-1.1,8.2c-0.2,1-0.5,2.1-0.7,3.1l-4.6,1.8l-1,3l0.2,0.1
		h0.1v-0.1c0.2,0,0.4,0.1,0.6,0.2c1,0.4,1.9,0.8,2.8,1.4c0,0,0.1,0,0.1,0.1c1.8,1,3.7,2.1,5.5,3.3c0.6,0.4,1.3,0.8,1.9,1.2l1.7,1.2
		c2.3,3.8,3.9,7,5,9.4c1.1,2.6,2.1,5.2,3,8l0.1,0.1c0,0,0,0.1,0.1,0.1l93.6,13.9h0.1c0.7,0.1,1.3,0.3,1.9,0.7c1.4,0.9,2.8,1.9,4.2,3
		c0,0,0.1-0.1,0.1-0.1l47.9-33.7c0-0.1,0-0.2,0.1-0.2c0.2-0.8,0.6-1.6,1-2.4c0.6-1.5,1.5-2.9,2.5-4.3c1.5-2.1,3.3-3.9,5.4-5.5
		c0.6-0.5,1.1-0.9,1.6-1.3l0.1-0.1c0,0,0.1-0.1,0.2-0.1c1.9-1.6,3.9-3.3,6-4.8l20.3-16.3c0-0.1,0.1-0.2,0.2-0.2
		c1.9-1.6,3.8-3.2,5.7-4.6c0-0.1,0.1-0.1,0.2-0.2c0.2-0.2,0.4-0.4,0.7-0.5c1.6-1.4,3.4-2.6,5.2-3.7c0.1-0.1,0.2-0.1,0.3-0.2
		c5.5-3.1,11.6-4.5,18.5-4.2c9.5,0.4,17.5,4.1,24.1,11.1l0.1,0.1c0,0,0.1,0,0.1,0.1c1.3,1.4,2.5,2.9,3.6,4.5
		c0.1,0.1,0.2,0.2,0.2,0.4c0,0,0.1,0.1,0.1,0.2c3.8,5.8,5.6,12.4,5.4,19.8C474.8,124.9,472.9,130.9,469.3,136.2z"/>
	<path d="M135.5,311.1c0,1,0,2,0,3c0.1,1.4,0.2,2.9,0.3,4.3c0.8,10,3.6,18.9,8.3,26.5c0.4,0.6,0.8,1.3,1.2,1.9
		c0.2,0.2,0.3,0.4,0.5,0.7c6.2,8.9,13.8,13.3,22.9,13.4c0.1,0,0.2,0,0.2,0c9.2-0.1,17.4-4.8,24.6-14.1c0.4-0.6,0.9-1.2,1.4-1.9
		c0.4-0.6,0.8-1.1,1.2-1.7c0.6-1,1.3-1.9,1.9-3c1.7-2.9,3.2-5.9,4.4-9c2.9-7.4,4.6-15.5,5.1-24.4c0-1.4,0.1-2.7,0.1-4
		c0-1.8,0-3.6-0.1-5.2c-0.6-11-3.4-20.7-8.5-28.9c-0.3-0.5-0.6-1-0.9-1.5l-7.4,5.2c0.6,0.8,1.2,1.7,1.8,2.7c3.9,6.5,6.1,14,6.8,22.5
		c0.1,1.6,0.2,3.3,0.2,4.9c0,1.3,0,2.7-0.1,4v0.1c0,0,0,0.1,0,0.2c-0.7,12.1-4.1,22.5-10.2,31.2c-2.6,3.7-5.4,6.6-8.3,8.7
		c0,0-0.1,0.1-0.1,0.2c-0.5,0.3-1,0.6-1.6,1c-0.7,0.4-1.4,0.8-2.1,1.2h-0.1c-7.7,2.9-14.5,2.3-20.3-2c3.8,1.8,8.8,2.1,15.1,0.7
		c-0.7-0.3-1.3-0.6-2-0.9c-4-2.1-7.5-5.7-10.5-10.7c-1-1.8-2-3.6-2.8-5.5l-12.1-0.3c-0.5-1.5-1-3-1.3-4.5l11.8,0.4
		c-0.8-2.6-1.4-5.3-1.9-8.1l-11.4-0.4c-0.2-1.3-0.3-2.7-0.4-4.1c-0.1-2.1-0.1-4.3,0-6.5L135.5,311.1z"/>
	<path d="M257.3,210.8l24.6,2.9c4.4-14.7,7.2-22.8,8.4-24.4l8.9-6.1l-43.3-5.8c-0.3,0-0.5,0.1-0.8,0.3c3.8,5.1,5.8,10.2,6.2,15.1
		c0.3,6.1-0.8,11.6-3.3,16.7C257.7,209.9,257.5,210.3,257.3,210.8z"/>
	<path d="M166.5,148.8c2.9,4.6,5,8.1,6.4,10.4c1.6-0.9,2.6-1.4,3-1.6c2.4-1.2,4.7-2.4,7.1-3.6c2.7-1.3,5.4-2.6,8.1-3.9
		c1.4-0.7,2.9-1.4,4.5-2.1c5.8-2.5,11.9-3.5,18.1-3.1h0.1l-1-4.9c-0.3-3.5-0.4-6.4-0.2-8.8c-1.8-0.9-3.6-1.5-5.5-2l-1.9,3.7
		c-2.5,2-5.3,3-8.6,3.1c-3.1,0-6.1-0.6-9-1.7c-2.1-0.8-4-1.9-5.8-3.2c-0.8-0.6-1.6-1.2-2.4-1.9c-0.9-0.8-1.7-1.7-2.5-2.6
		c-0.2-0.3-0.5-0.6-0.7-0.9L169,127c1.3,3.8,2.1,6.8,2.4,9.1c0.3,2.3,0.6,4.4,0.8,6.5c0.3,2.1,0.3,5.3,0.1,9.8L166.5,148.8z"/>
	<path d="M219.7,297.5c-0.2,2.6-0.3,5.2-0.5,7.8c0,0.4-0.1,0.9-0.1,1.4c-1,13.6-3.3,27-6.9,40c-0.5,1.7-1,3.5-1.6,5.2
		c-4.7,15.2-11.6,29.5-20.6,42.9c-7.4,10.9-16.2,20-26.3,27.1H224c4.2-2,8.2-4.4,12-7.2c2.7-2,5.2-4.2,7.6-6.6l-16.2-0.2
		c-0.4,0-0.7-0.2-1-0.4c-0.3-0.3-0.4-0.6-0.4-0.9c0-0.4,0.1-0.7,0.4-1l4.4-5.5c0.1-0.2,0.3-0.3,0.5-0.4c0.2-0.1,0.4-0.2,0.6-0.1
		l18,0.3c0.3,0,0.6,0,0.8,0.2c2.7-3.6,5.2-7.3,7.4-11.3c2.1-3.7,4-7.4,5.7-11.2c0.1-0.3,0.3-0.6,0.5-0.9l-17.1-0.9
		c-0.3,0-0.6-0.1-0.8-0.2c-0.2-0.2-0.4-0.5-0.4-0.8c-0.1-0.3-0.1-0.6,0-0.9l2.4-5.4c0.1-0.3,0.3-0.5,0.5-0.7
		c0.2-0.2,0.5-0.2,0.8-0.2l17.4,0.9c0.2,0,0.3,0,0.4,0.1c2.7-7,4.7-14.1,6.3-21.3c0.3-1.4,0.6-2.9,1-4.3l-16.6-1
		c-0.3,0-0.5-0.1-0.7-0.3c-0.2-0.2-0.4-0.4-0.5-0.7c-0.1-0.2-0.1-0.5-0.1-0.7l1.1-5.5c0-0.4,0.2-0.6,0.5-0.8c0.3-0.2,0.6-0.3,1-0.2
		l16.7,1c0,0,0.1,0,0.2,0c1.4-8.5,2.3-17.1,2.7-25.7l-17.1-1.1c-0.4,0-0.7-0.2-1-0.5c-0.2-0.3-0.4-0.6-0.4-0.8c0-0.1,0-0.1,0-0.2
		l0.4-5.6c0-0.4,0.2-0.7,0.5-1c0.3-0.2,0.6-0.4,1-0.4l16.9,1.1v-17.7l-59.2-3.8C220.1,285.4,220,291.5,219.7,297.5z"/>
	<path d="M196.8,233c2.3,0.9,4.5,2.1,6.5,3.6c6.5,4.9,11.3,12.8,14.6,23.9l70.9,6.2c-0.6-2.1-1.2-3.9-1.7-5.2
		c-0.4-1-0.8-2.1-1.3-3.1c-1.6-3.4-3.4-6.6-5.6-9.7v-0.1c-0.9-1.3-1.8-2.5-2.8-3.7c-1.2-1.4-2.6-2.8-3.9-4.1c-1.6-1.5-3.2-2.9-5-4.1
		c-1.2-0.9-2.4-1.7-3.6-2.4c-1.2-0.6-2.6-1.1-3.9-1.5c-4.3-1.5-9.2-2.7-14.8-3.5c-4.1-0.7-8.5-1.2-13.2-1.5
		c-0.9-0.1-1.8-0.1-2.7-0.2c-0.2,0-0.5,0-0.7-0.1c-4.1-0.3-8.2-0.5-12.4-0.8c-2.9-0.2-5.7-0.4-8.6-0.6c-2.6-0.2-5.2-0.4-7.8-0.6
		c-2.9,0.8-5.9,1.7-8.8,2.8c-5.7,2-11.6,4.3-17.5,7c-14.6,6.6-29.8,15.3-45.5,26.2c-2.9,2-5.9,4.1-8.8,6.3c3.9-2.2,7.8-4.3,11.6-6.3
		c23.1-12.4,41.7-20.9,55.9-25.7C190.8,234.6,193.9,233.7,196.8,233z"/>
	<path d="M166.5,393.7c0.4-6.3-0.7-11.8-3.2-16.3c-0.7-1.3-1.5-2.4-2.3-3.4c-0.1,0-0.1-0.1-0.2-0.1c-2.4-2.7-5.3-4-8.8-4
		c-0.4,0-0.9,0-1.3,0.1c-1.2,0.3-2.2,0.5-3.2,0.8c-3,1.1-5.8,3.3-8.4,6.7c-2.8,3.5-4.7,7.5-5.9,12.1c-0.4,1.3-0.6,2.7-0.8,4.2
		c-0.1,0.6-0.2,1.2-0.2,1.9c-0.2,1.2-0.3,2.4-0.3,3.5c0,0.7,0,1.4,0.1,2.1c0.1,4.7,1.2,8.9,3.3,12.6c0.2,0.3,0.3,0.6,0.5,0.9
		c0.1,0.1,0.2,0.2,0.2,0.3c2.7,4.2,6.2,6.4,10.6,6.4c0,0,0.1,0,0.1,0c4.4,0,8.4-2.3,12.1-6.7c0.2-0.3,0.5-0.6,0.7-0.9
		c0.2-0.3,0.4-0.5,0.7-0.8c0.3-0.5,0.6-1,1-1.4c0.9-1.4,1.7-2.8,2.4-4.3c1.6-3.5,2.6-7.4,3.1-11.6
		C166.5,394.9,166.5,394.3,166.5,393.7z M160.7,393.8c0,0.6,0,1.1-0.1,1.7c-0.6,5.1-2.3,9.5-5.1,13.2c-1.2,1.5-2.4,2.8-3.7,3.7
		c0,0-0.1,0-0.1,0.1c-0.2,0.1-0.5,0.2-0.7,0.4c-0.3,0.2-0.6,0.3-1,0.5c-3.3,1.2-6.1,0.9-8.5-0.8c1.4,0.7,3.3,0.8,5.5,0.4
		c0.2,0,0.5-0.1,0.8-0.2c-0.2-0.1-0.5-0.2-0.7-0.3c-1.7-0.9-3.1-2.4-4.3-4.5c-0.4-0.8-0.7-1.5-1-2.4l-5.1-0.1
		c-0.2-0.6-0.3-1.2-0.4-1.8l4.9,0.1c-0.3-1.1-0.5-2.2-0.6-3.4l-4.8-0.1c0-0.6,0-1.1,0-1.7c0-1,0.1-1.9,0.2-3c0-0.6,0.1-1.1,0.2-1.7
		c0.4-2.8,1.2-5.3,2.4-7.5c0.6-1.4,1.4-2.8,2.4-4c2.8-3.7,5.8-5.5,9.2-5.5c0.3,0,0.6,0,0.8,0.1c0.5,0,1,0.1,1.4,0.2
		c2.3,0.6,4.2,2.4,5.7,5.2C160.2,385.5,160.9,389.3,160.7,393.8z"/>
	<path d="M80.1,354.8c-0.1-0.1-0.1-0.2-0.2-0.2c-0.9-0.9-1.9-1.7-2.8-2.4l-5.2,3.7c2.9,1.3,5.4,3.7,7.7,7.4
		c3.3,5.7,4.8,12.5,4.4,20.5c-0.4,8-2.7,14.8-6.6,20.4c-1.7,2.4-3.5,4.3-5.4,5.7c-0.4,0.2-0.7,0.5-1.1,0.7c-0.5,0.3-0.9,0.5-1.4,0.8
		c-5.1,1.9-9.5,1.4-13.3-1.3c2.5,1.2,5.7,1.4,9.8,0.5c-3.1-1.2-5.8-3.8-8.1-7.6c-0.7-1.1-1.3-2.3-1.7-3.6l-7.9-0.2
		c-0.4-0.9-0.7-1.9-0.9-2.8l7.7,0.2c-0.6-1.7-1-3.5-1.3-5.3l-7.4-0.2c-0.1-0.9-0.2-1.8-0.2-2.7c-0.1-1.5-0.1-3,0-4.6
		c0.2-4.1,0.9-7.8,2-11.2l-4.5,3.1v0.1c-0.6,2.6-0.9,5.4-1,8.3c-0.1,1.6-0.1,3.2-0.1,4.8c0,0.9,0,1.8,0.1,2.8
		c0.6,6.4,2.4,12.1,5.4,17.1c0.3,0.6,0.7,1.1,1,1.6c4,5.7,8.9,8.6,14.8,8.6c0,0,0.1,0,0.1,0c6.3,0,11.9-3.4,16.8-10.2
		c0.3-0.4,0.5-0.7,0.8-1.1c0.4-0.6,0.8-1.3,1.2-1.9c1.1-1.8,2.1-3.8,2.9-5.8c1.8-4.7,2.9-10,3.3-15.7c0.5-9.6-1.3-17.9-5.5-24.7
		C82.4,357.6,81.3,356,80.1,354.8z"/>
	<path d="M182.9,101.7c0.2,2.5,0.5,3.8,1,4c2.5,0.6,5.2,0.8,8.2,0.6c1,0,1.8-0.2,2.4-0.7l0.5-0.7c0-0.1,0.1-0.1,0.1-0.2l1-1.3
		c0.4-0.8,1-1.1,1.7-1c1.1,0,2.3,0.1,3.4,0.3h0.1c0.6,0,1.1,0.4,1.4,1.1v0.1l0.4,1c0,0,0,0.1,0.1,0.1l0.6,1.7c0,0.1,0.1,0.2,0.1,0.2
		c1.2,0.2,2.2,0.2,3.1,0.1c0.3-0.4,0.5-0.8,0.6-1.1v-0.1c0.9-2.7,1.2-5,0.8-7.1c-0.1-0.2-0.3-0.6-0.5-1.1
		c-7.4-2.2-15.2-2.9-23.5-2.1c-0.1,0-0.2,0-0.4,0.1c-0.1,0-0.2,0.1-0.3,0.2c-0.2,0.1-0.4,0.2-0.6,0.4
		C182.8,98.2,182.8,100,182.9,101.7L182.9,101.7z"/>
	<path d="M118.3,383c-0.1,0-0.1-0.1-0.2-0.1c-2-2.2-4.4-3.3-7.2-3.3c-0.4,0-0.7,0-1,0.1c-1,0.2-1.8,0.4-2.6,0.5
		c-2.5,0.9-4.7,2.7-6.8,5.5c-2.2,2.9-3.7,6.2-4.6,9.9c-0.2,1.1-0.4,2.3-0.6,3.4c-0.1,0.5-0.1,1-0.2,1.6c-0.1,1-0.1,1.9-0.1,2.9
		c0,0.5,0,1.1,0.1,1.6c0.2,3.9,1.1,7.3,2.8,10.3c0.1,0.2,0.3,0.5,0.4,0.8c0.1,0.1,0.1,0.2,0.2,0.2c2.3,3.5,5.2,5.2,8.8,5.2h0.1
		c3.6,0,6.8-1.8,9.7-5.4c0.2-0.3,0.4-0.5,0.6-0.8c0.2-0.2,0.3-0.4,0.5-0.7c0.3-0.4,0.5-0.8,0.8-1.1c0.7-1.2,1.3-2.4,1.8-3.6
		c1.2-2.9,2-6,2.3-9.5c0-0.5,0.1-1,0.1-1.6c0.2-5.1-0.8-9.6-2.9-13.3C119.6,384.7,119,383.8,118.3,383z M118.4,399.1
		c0,0.4-0.1,0.9-0.1,1.4c-0.4,4.2-1.7,7.8-3.9,10.8c-0.9,1.2-1.9,2.3-2.9,3c0,0-0.1,0-0.1,0.1c-0.2,0.1-0.4,0.2-0.5,0.3
		c-0.2,0.1-0.5,0.2-0.7,0.4c-2.7,1-5,0.8-6.9-0.7c1.1,0.6,2.6,0.7,4.5,0.4c0.2-0.1,0.4-0.1,0.7-0.2c-0.2-0.1-0.4-0.2-0.6-0.2
		c-1.4-0.8-2.6-2-3.6-3.7c-0.4-0.6-0.7-1.2-0.9-1.9l-4.1-0.1c-0.2-0.5-0.3-1-0.4-1.5l4,0.1c-0.2-0.9-0.4-1.8-0.5-2.8l-4-0.1
		c0-0.5-0.1-0.9-0.1-1.4c0-0.8,0-1.6,0.1-2.5c0-0.5,0-0.9,0.1-1.4c0.3-2.3,0.9-4.3,1.7-6.2c0.5-1.2,1.2-2.3,1.9-3.3
		c2.2-3,4.7-4.5,7.5-4.5c0.2,0,0.4,0,0.7,0.1c0.4,0,0.8,0.1,1.1,0.2c1.9,0.5,3.5,1.9,4.8,4.2C117.8,392.4,118.5,395.5,118.4,399.1z"
		/>
	<path d="M85.4,346.3c2.6,1.5,5,3.7,7.3,6.6c0.7,0.9,1.4,1.9,2.2,3c4.9-3.4,9.4-6.4,13.4-9.1c8.3-5.7,14.8-10,19.3-13
		c-1.3-3.5-2-8.7-2.1-15.6L85.4,346.3z"/>
	<path d="M121,356.1c-0.6-0.7-1-1.5-1.4-2.3l-0.2,0.1c0,0-0.1-0.1-0.1-0.1l-9.8,6l0.9,5.5l13.4-6.6c-0.7-0.5-1.3-1-1.9-1.6
		L121,356.1z"/>
	<path d="M204.3,110.7c-0.2-0.1-0.4-0.2-0.4-0.2c-0.1-0.1-0.2-0.1-0.3-0.2c-0.3-0.1-0.6-0.2-0.8-0.2c-0.3-0.1-0.5-0.2-0.8-0.2
		l-0.1-0.1c0-0.2-0.1-0.3-0.1-0.5c-0.2-0.4-0.2-0.6-0.2-0.7c-0.1-0.3-0.2-0.6-0.2-0.8c-0.1-0.3-0.2-0.6-0.3-0.8
		c0-0.1-0.1-0.2-0.1-0.4c-0.7-0.2-1.4-0.3-2.2-0.2c-0.1,0-0.2,0-0.2,0.1c-0.1,0-0.1,0.1-0.1,0.1c-0.1,0.2-0.2,0.3-0.4,0.5
		c-0.2,0.2-0.3,0.5-0.5,0.7c-0.2,0.2-0.4,0.5-0.5,0.7c-0.2,0.2-0.3,0.3-0.4,0.5c-0.1,0-0.1,0.1-0.1,0.1c-0.7,0.3-1.4,0.5-2.2,0.6
		s-1.5,0.2-2.2,0.4c-0.6,0-1,0.1-1.4,0.1h-0.4c-0.8,0.1-1.2,0.3-1.3,0.5c-0.1,0.2-0.2,0.5-0.3,0.7c0,0.2-0.1,0.3-0.1,0.5
		c0,0,0,0.1,0.1,0.1v0.1c0,0,0,0.1,0,0.1c0,0.1,0,0.3,0.1,0.4c0.1,0.4,0.2,0.7,0.3,1.1c0.1,0.3,0.2,0.6,0.2,0.8
		c0.2,0.6,0.4,1.3,0.7,1.9c0.4,0.5,1,0.9,1.6,1.3c0.6,0.3,1.2,0.6,1.8,1l1.9,0.5c0.2,0,0.4,0,0.7,0.1c0.4,0,0.7,0,1.1,0
		c0.2,0,0.3,0,0.5,0c0.2,0,0.4-0.1,0.7-0.1c0.8-0.1,1.6-0.3,2.4-0.6c0.7-0.3,1.2-0.6,1.6-0.8c0.3-0.2,0.5-0.5,0.6-0.7l0.4-0.9
		c0.2-0.6,0.4-1.3,0.7-2c0-0.2,0.1-0.4,0.1-0.5c0.2-0.4,0.3-0.8,0.3-1c0-0.4,0.1-0.9,0.3-1.6C204.6,111,204.5,110.8,204.3,110.7z"/>
	<path d="M327.8,213.8v-0.1c0.2-1.5,0.3-3,0.4-4.5c0-1.2-0.1-2.6-0.2-3.9l-19.4,10.2c-0.1,0.4-0.2,0.7-0.3,1l-0.1,0.6l18.2,2.4
		c0,0,0-0.1,0-0.1c0.1-0.3,0.2-0.6,0.2-0.7l0.1-0.5c0-0.1,0-0.2,0.1-0.2c0.2-0.7,0.4-1.2,0.5-1.5v0.1
		C327.5,215.5,327.6,214.7,327.8,213.8z"/>
	<path d="M219.2,219.3c2.1,0.1,4,0.2,5.7,0.4c2,0.1,3.7,0.2,5.1,0.4h0.1c0,0,0.1,0,0.2,0c3.5,0.3,6.9,0.6,10.1,1h0.1
		c2,0.2,4,0.5,5.8,0.8c8.1,1.2,14.6,2.9,19.4,5c0.1,0,0.2,0,0.3,0.1c2.6,1.2,5,2.6,7.2,4c1.2,0.8,2.5,1.7,3.6,2.6
		c1.5,1.1,2.9,2.4,4.2,3.7c0.1,0.1,0.2,0.2,0.2,0.2c0.2,0.2,0.3,0.3,0.5,0.5c0,0,0.1,0,0.1,0.1l62.9,6.5l4.6-5.6
		c1.4-1.9,3.2-2.8,5.4-2.7l8.6,0.2l-0.2-5.9l-143.7-17.4L219.2,219.3z"/>
	<path d="M334.5,214.2c-0.1,1-0.3,2.1-0.5,3.1c-0.2,0.5-0.3,1-0.4,1.5l-0.5,1.5l15.3,1.9c-0.1-1-0.2-1.8-0.2-2.6
		c-0.3-2.5-0.6-4.3-0.8-5.4c-0.1-0.8-0.2-1.5-0.4-2.1c-0.2-1.2-0.5-2.4-0.8-3.5c-0.9-3.5-2-6.8-3.3-10c-0.2-0.4-0.3-0.7-0.4-1
		l-8.3,4.3c0.4,2.4,0.6,4.7,0.7,6.9c0,1.7,0,3.4-0.2,5C334.6,214,334.6,214.1,334.5,214.2z"/>
	<path d="M460.4,98c-5.3-5.7-11.8-8.7-19.5-9c-6.2-0.3-11.8,1.1-16.9,4.3l-6.2,4.6c-9,7.1-17.6,14.2-25.8,21.2l-7.6,6.5
		c-0.2,0.2-0.3,0.3-0.4,0.5c-1.4,1.6-2.5,3.2-3.4,5c-0.5,1-0.9,2-1.1,3.1v0.1h-0.1v0.1l-0.1,0.1c-0.3,1-0.5,2.1-0.6,3.2
		c-0.2,1.2-0.2,2.6-0.1,3.9v0.1c0,1.3,0.2,2.6,0.5,3.9l30.6-21c-0.2-3.4,0.6-6.9,2.5-10.6c0,0.4,0,1.5,0.1,3.4
		c0,1.8,0.3,3.7,0.7,5.8c0.7,2.7,1.8,5.2,3.4,7.7c0.9,1.5,2,2.9,3.3,4.3c1.2,1.2,2.4,2.4,3.7,3.4c0.2,0.1,0.4,0.2,0.6,0.4
		c0.3,0.2,0.6,0.5,1,0.7c0,0,0.1,0,0.2,0.1c4.1,2.7,8.7,4.2,14,4.5c3.6,0.2,6.9-0.3,10.1-1.3c0,0,0.1-0.1,0.1-0.1c0,0,0-0.1,0.1-0.1
		h0.1c3.5-1.2,6.7-3.2,9.6-5.8c5.5-5.1,8.4-11.5,8.7-19.1c0.2-5.9-1.3-11.2-4.3-15.9C462.7,100.7,461.6,99.3,460.4,98z M464.6,115.5
		l-32.6,15.4c1.3,0.9,2.7,1.6,4.2,2.2l26.4-7.8c-0.4,2.1-2.1,4.4-5.1,7.1c-4.5,4.2-9.9,6.1-16.2,5.8c-3.5-0.2-6.8-1-9.6-2.5
		c-1.9-1-3.6-2.3-5.2-3.9h-0.1c-0.3-0.3-0.6-0.6-0.9-0.9v-0.1c-0.9-1-1.7-2.1-2.5-3.1c0,0-0.1-0.1-0.1-0.1l-0.1-0.1
		c-1.3-2-2.2-4.1-2.8-6.3v-0.1c-0.5-2.1-0.7-4.2-0.7-6.4c0.2-6.2,2.6-11.4,7.1-15.6c4.5-4.2,9.9-6.1,16.2-5.8
		c2.2,0.1,4.2,0.4,6.2,1.1c0.5,0.2,1,0.4,1.4,0.6c2.7,1.2,4.7,2.7,6.2,4.4c-0.3-0.2-0.6-0.3-0.8-0.4c-2.5-1-4.3-1.4-5.5-1.2
		l-25.2,23.3c0.7,2.5,1.9,4.7,3.7,6.8l34.1-19.7c1.2,1.4,1.8,3.6,1.9,6.6C464.6,115.5,464.6,115.7,464.6,115.5z"/>
	<path d="M209.9,154.9c-0.1,0.4-0.2,1-0.1,1.6c2.8,6.9,5.3,14.7,7.6,23.5c0.2,0.8,0.4,1.6,0.6,2.5c0.5,2.3,0.9,4.6,1.4,6.9
		c0.2,1.3,0.4,2.7,0.7,4c0.2,1.7,0.5,3.5,0.7,5.2c0,0.2,0,0.5,0.1,0.7c0.2,2.3,0.4,4.6,0.6,6.9h0.3l24.8,3.1h0.1c0-0.2,0-0.4,0-0.6
		c0-3.4,0-6.3-0.1-8.6c-0.1-1.3-0.2-2.8-0.4-4.4c-0.2-1.9-0.5-4.1-0.8-6.4c-0.6-4.1-1.7-9.1-3.5-15.1c1.2-1.6,2.6-2.7,4.3-3.4
		c1.1-0.4,2.3-0.7,3.5-0.8l57,7.8l12.8-9c-0.6-0.4-1.2-0.8-1.7-1.2l-103.7-14.9C211.7,152.8,210.3,153.4,209.9,154.9z M236.1,201.1
		c0,1-0.2,1.8-0.8,2.5c-0.6,0.7-1.3,1-2.2,1.1c-0.6,0-1.1-0.1-1.5-0.4c-0.2-0.1-0.3-0.2-0.4-0.3c-0.1-0.1-0.2-0.2-0.2-0.2
		c-0.3-0.3-0.5-0.6-0.7-0.9c-0.2-0.5-0.4-1-0.4-1.6c0-1,0.2-1.8,0.8-2.5c0.2-0.3,0.5-0.5,0.8-0.7c0.4-0.3,0.9-0.4,1.4-0.4
		c0.9,0,1.6,0.3,2.3,1C235.8,199.3,236.1,200.1,236.1,201.1z M232.4,178.5c0.1,0.1,0.2,0.2,0.3,0.3c0.6,0.7,0.9,1.5,1,2.4
		c0,1-0.2,1.8-0.8,2.5c-0.5,0.6-1.1,0.9-1.7,1c-0.2,0-0.3,0-0.4,0c-0.9,0-1.6-0.3-2.2-0.9c-0.6-0.6-1-1.4-1-2.4c0-0.1,0-0.1,0-0.2
		c0-0.9,0.3-1.7,0.9-2.4c0.1-0.1,0.2-0.2,0.3-0.4c0.5-0.5,1.1-0.8,1.9-0.8S231.8,178,232.4,178.5z M223.2,160.8
		c0.6-0.7,1.3-1.1,2.2-1.1c0.8,0,1.6,0.3,2.2,1c0.6,0.7,1,1.5,1,2.5c0,0.1,0,0.2,0,0.3c0,0.8-0.3,1.6-0.8,2.2
		c-0.4,0.4-0.8,0.7-1.3,0.9c-0.3,0.1-0.6,0.2-1,0.2c-0.8,0-1.6-0.3-2.2-1c-0.6-0.6-1-1.5-1-2.5C222.3,162.3,222.6,161.5,223.2,160.8
		z"/>
	<path d="M374.8,141.8c-0.1-1.3-0.1-2.5,0-3.7l-76.7,53.2c0,0-0.1,0-0.1,0.1c-0.8,0.5-1.5,1.1-2.1,1.8c-1.2,1.4-2,2.9-2.3,4.7
		c0,0.2-0.1,0.5-0.1,0.8c0,0.6,0,1.2,0,1.8c0.1,1.1,0.3,2.1,0.7,3.1c0,0.2,0.1,0.3,0.2,0.5l83.8-51v-0.1c-1.1-1.8-1.9-3.8-2.5-5.9
		C375.2,145.5,374.9,143.7,374.8,141.8z"/>
	<path d="M368.9,266.7L368.9,266.7c-4.4-5.1-9.9-9.1-16.7-12.1c-2.5-1.1-5.2-2-8-2.8l-56.6-5.5c2.7,4,4.8,8.3,6.6,13
		c0.2,0.7,0.5,1.4,0.7,2.2c0.7,2.2,1.3,4.4,1.8,6.7c0,0.1,0,0.2,0.1,0.3c0,0.1,0,0.2,0,0.3c0,0.1,0,0.2,0,0.3l-0.1,0.2
		c-0.1,0.4-0.3,0.8-0.7,1.2l-11.7,11.3c0,1.8,0.1,3.7,0.1,5.5l91.5,8.4C377,283.7,374.7,274,368.9,266.7z M299.1,283.1L299.1,283.1
		c-0.7,0.7-1.5,1-2.5,1c-0.9,0-1.7-0.3-2.4-1v0.1c-0.7-0.7-1-1.5-1-2.5c0-1,0.3-1.8,1-2.5c0.7-0.7,1.5-1.1,2.4-1.1
		c1,0,1.8,0.4,2.5,1.1c0.7,0.7,1,1.5,1,2.5C300.1,281.6,299.7,282.4,299.1,283.1z M323,285.5L323,285.5c-0.7,0.7-1.5,1-2.5,1
		c-1,0-1.8-0.3-2.5-1v0.1c-0.7-0.7-1.1-1.5-1.1-2.5c0-1,0.4-1.8,1.1-2.4c0.7-0.7,1.5-1.1,2.5-1.1c1,0,1.8,0.4,2.5,1.1h-0.1
		c0.7,0.6,1,1.4,1.1,2.4C324,284,323.6,284.9,323,285.5z M346.8,287.9c-0.7,0.6-1.5,1-2.5,1c-1,0-1.8-0.3-2.5-1s-1-1.5-1-2.5
		c0-1,0.3-1.8,1-2.5c0.7-0.7,1.5-1.1,2.5-1c1,0,1.8,0.3,2.5,1c0.7,0.7,1,1.5,1,2.5C347.9,286.4,347.5,287.3,346.8,287.9z
		 M368.4,290.2L368.4,290.2c-0.7,0.7-1.5,1-2.5,1.1c-1,0-1.8-0.4-2.5-1.1v0.1c-0.7-0.7-1.1-1.5-1.1-2.5c0-1,0.4-1.8,1.1-2.4
		c0.7-0.7,1.5-1.1,2.5-1.1c1,0,1.8,0.4,2.5,1.1h-0.1c0.7,0.6,1,1.4,1.1,2.4C369.4,288.7,369,289.5,368.4,290.2z"/>
	<path d="M367.3,244.5c6.1,2.7,11.1,6.1,15.1,10.1c5.8,5.9,9.4,13.2,10.8,21.9l56.9,5.4c-2.1-4.5-4.4-8.8-7.1-12.9
		c-3.9-6.2-8.3-11-13.2-14.5c-3.1-2.2-6.4-3.9-9.8-4.9c-12.9-2.9-30.4-4.9-52.4-5.8c-0.3,0-0.6-0.1-1-0.1h-0.2c0,0-0.1,0-0.1,0
		c-0.2,0-0.5,0-0.7,0c0.2,0.1,0.4,0.2,0.7,0.3C366.6,244.2,367,244.3,367.3,244.5z"/>
	<path d="M419.6,311.7c0-0.2,0-0.4,0.1-0.5c0-0.3,0.1-0.6,0.4-0.8c0.2-0.2,0.5-0.3,0.8-0.2l15.8,1c0-1,0-2.1-0.1-3.1
		c0-0.4,0-0.9-0.1-1.3c-0.1-2.8-0.3-5.6-0.5-8.3L387,294c0.2,4.3,0.3,8.5,0.2,12.8c0,0.2-0.1,0.3-0.1,0.5
		c-0.4,12.9-2.2,25.6-5.2,38.2c-0.3,1-0.5,2.1-0.8,3.1c-2.6,10.4-6.2,20.4-10.7,30.1c-0.5,1-0.9,1.9-1.4,2.8
		c-4.5,9.4-10.2,18-16.8,25.9l-7.4,8l-7.4,6.6h47.9c5.3-3.4,10.1-7.3,14.5-11.5l-16.1-0.2c-0.3,0-0.6-0.1-0.8-0.3
		c-0.3-0.2-0.4-0.5-0.4-0.8c0-0.4,0.1-0.7,0.4-1c0.4-0.5,0.9-1,1.3-1.4l0.1-0.1c0,0,0-0.1,0.1-0.1c1.1-1.3,2.1-2.6,3.1-3.9
		c0.1-0.2,0.3-0.3,0.4-0.3c0.2-0.1,0.4-0.1,0.6-0.1l17.8,0.2c0.3,0,0.5,0.1,0.8,0.4c3-3.7,5.8-7.6,8.3-11.8c1.4-2.3,2.7-4.6,4-6.9
		l0.9-1.7l-17.4-0.8c-0.3,0-0.5-0.1-0.7-0.3h-0.1c-0.2-0.2-0.3-0.4-0.4-0.7c-0.1-0.3,0-0.6,0.1-0.8c0.5-1.1,1.1-2.3,1.7-3.4
		c0-0.2,0.1-0.3,0.2-0.4c0-0.2,0.1-0.4,0.2-0.5v-0.1c0.2-0.4,0.3-0.7,0.5-1c0.1-0.2,0.2-0.4,0.5-0.6c0.2-0.1,0.4-0.2,0.7-0.2
		l18.1,0.9c0.1,0,0.2,0,0.4,0.1c3.2-7.2,5.8-14.7,7.8-22.4l-17.5-1c-0.3,0-0.5-0.1-0.7-0.2s-0.3-0.4-0.4-0.6h0.1
		c-0.1-0.2-0.1-0.5-0.1-0.7c0.4-1.4,0.7-2.9,1.1-4.3c0,0,0-0.1,0.1-0.1c0.1-0.4,0.2-0.9,0.3-1.3c0.1-0.3,0.2-0.5,0.5-0.7
		c0.2-0.2,0.5-0.3,0.8-0.2l17.5,1c0.1,0,0.2,0,0.2,0.1c1.6-8.2,2.6-16.5,2.9-24.9l-16.2-1.1c-0.4,0-0.6-0.2-0.8-0.4
		c-0.2-0.3-0.4-0.6-0.4-0.9C419.3,315.1,419.5,313.4,419.6,311.7L419.6,311.7z"/>
</g>
</svg>
