<?xml version="1.0" encoding="utf-8"?>
<!-- Generator: Adobe Illustrator 24.0.0, SVG Export Plug-In . SVG Version: 6.00 Build 0)  -->
<svg version="1.1" id="Layer_1" xmlns="http://www.w3.org/2000/svg" xmlns:xlink="http://www.w3.org/1999/xlink" x="0px" y="0px"
	 viewBox="0 0 512 512" style="enable-background:new 0 0 512 512;" xml:space="preserve">
<style type="text/css">
	.st0{fill:#FFFFFF;}
</style>
<g id="XMLID_1_">
	<path id="XMLID_7_" class="st0" d="M151.9,417.2c13.9,0,26.9-6.5,35.3-18.6c13-19.5,7.4-45.5-12.1-58.5l-32.5-22.3
		c5.6-1.9,11.2-2.8,17.7-2.8c37.2,0,66.9,29.7,66.9,66.9s-29.7,66.9-66.9,66.9c-36.2,0-66-28.8-66.9-64.1l36.2,24.2
		C136.1,415.4,144.5,417.2,151.9,417.2L151.9,417.2z M426,0c46.5,0,85.5,38.1,85.5,85.5v341c0,46.5-38.1,85.5-85.5,85.5H86
		c-46.5,0-85.5-38.1-85.5-85.5V324.3l60.4,40c-5.6,31.6,3.7,65,27.9,90.1c39,39,103.1,39,142.2,0c24.2-24.2,33.5-57.6,27.9-89.2
		l124.5-111.5c23.2-3.7,45.5-13.9,63.2-31.6c43.7-43.7,43.7-114.3,0-158s-114.3-43.7-158,0c-17.7,17.7-27.9,40-31.6,63.2
		L154.7,282.5c-15.8,0.9-31.6,5.6-45.5,13.9L0.5,223.9V85.5C0.5,39,38.6,0,86,0H426L426,0z M447.4,144c0-43.7-35.3-79.9-79.9-79.9
		s-79.9,35.3-79.9,79.9s35.3,79.9,79.9,79.9S447.4,187.7,447.4,144z M320.1,144c0-26,21.4-48.3,48.3-48.3s48.3,21.4,48.3,48.3
		s-21.4,48.3-48.3,48.3S320.1,170,320.1,144z"/>
</g>
</svg>
