<?xml version="1.0" encoding="UTF-8" standalone="no"?>
<!-- Created with Inkscape (http://www.inkscape.org/) -->

<svg
   xmlns:dc="http://purl.org/dc/elements/1.1/"
   xmlns:cc="http://creativecommons.org/ns#"
   xmlns:rdf="http://www.w3.org/1999/02/22-rdf-syntax-ns#"
   xmlns:svg="http://www.w3.org/2000/svg"
   xmlns="http://www.w3.org/2000/svg"
   xmlns:sodipodi="http://sodipodi.sourceforge.net/DTD/sodipodi-0.dtd"
   xmlns:inkscape="http://www.inkscape.org/namespaces/inkscape"
   width="128"
   height="128"
   viewBox="0 0 33.866666 33.866668"
   version="1.1"
   id="svg8"
   inkscape:version="0.92.3 (2405546, 2018-03-11)"
   sodipodi:docname="dcat_iso.svg">
  <defs
     id="defs2">
    <clipPath
       id="clipPath831"
       clipPathUnits="userSpaceOnUse">
      <path
         inkscape:connector-curvature="0"
         id="path829"
         d="M 0,495.589 H 1024 V 0 H 0 Z" />
    </clipPath>
    <clipPath
       id="clipPath843"
       clipPathUnits="userSpaceOnUse">
      <path
         inkscape:connector-curvature="0"
         id="path841"
         d="m 25.338,486.59 c -9.99,0 -18.088,-8.099 -18.088,-18.088 v 0 -445.146 c 0,-9.989 8.098,-18.087 18.088,-18.087 v 0 h 974.698 c 9.989,0 18.087,8.098 18.087,18.087 v 0 445.146 c 0,9.989 -8.098,18.088 -18.087,18.088 v 0 z" />
    </clipPath>
    <clipPath
       id="clipPath977"
       clipPathUnits="userSpaceOnUse">
      <path
         inkscape:connector-curvature="0"
         id="path975"
         d="m 452.963,426.298 c -26.638,0 -48.233,-21.593 -48.233,-48.232 v 0 -262.431 c 0,-26.638 21.595,-48.233 48.233,-48.233 v 0 H 942.76 c 26.638,0 48.232,21.595 48.232,48.233 v 0 262.431 c 0,26.639 -21.594,48.232 -48.232,48.232 v 0 z" />
    </clipPath>
    <clipPath
       id="clipPath993"
       clipPathUnits="userSpaceOnUse">
      <path
         inkscape:connector-curvature="0"
         id="path991"
         d="m 25.338,486.59 c -9.99,0 -18.088,-8.099 -18.088,-18.088 v 0 -445.146 c 0,-9.989 8.098,-18.087 18.088,-18.087 v 0 h 974.698 c 9.989,0 18.087,8.098 18.087,18.087 v 0 445.146 c 0,9.989 -8.098,18.088 -18.087,18.088 v 0 z" />
    </clipPath>
    <clipPath
       id="clipPath1057"
       clipPathUnits="userSpaceOnUse">
      <path
         inkscape:connector-curvature="0"
         id="path1055"
         d="M 0,495.589 H 1024 V 0 H 0 Z" />
    </clipPath>
  </defs>
  <sodipodi:namedview
     id="base"
     pagecolor="#ffffff"
     bordercolor="#666666"
     borderopacity="1.0"
     inkscape:pageopacity="0.0"
     inkscape:pageshadow="2"
     inkscape:zoom="3.6203867"
     inkscape:cx="114.29885"
     inkscape:cy="96.923468"
     inkscape:document-units="mm"
     inkscape:current-layer="layer1"
     showgrid="false"
     fit-margin-top="0"
     fit-margin-left="0"
     fit-margin-right="0"
     fit-margin-bottom="0"
     inkscape:window-width="1920"
     inkscape:window-height="1001"
     inkscape:window-x="-9"
     inkscape:window-y="-9"
     inkscape:window-maximized="1"
     units="px" />
  <metadata
     id="metadata5">
    <rdf:RDF>
      <cc:Work
         rdf:about="">
        <dc:format>image/svg+xml</dc:format>
        <dc:type
           rdf:resource="http://purl.org/dc/dcmitype/StillImage" />
        <dc:title></dc:title>
      </cc:Work>
    </rdf:RDF>
  </metadata>
  <g
     inkscape:label="Layer 1"
     inkscape:groupmode="layer"
     id="layer1"
     transform="translate(-7.2393378,7.823885)">
    <g
       id="g891"
       transform="matrix(0.56013298,0,0,-0.56013298,15.309919,1.9677699)">
      <path
         d="m 0,0 c 1.897,0 1.635,-4.318 2.682,-6.084 1.047,-1.767 1.963,-2.029 1.963,-2.291 0,-0.26 -2.479,-0.93 -3.895,-1.44 -1.416,-0.506 -4.022,0.298 -3.891,4.304 C -3.01,-1.505 -1.179,0 0,0"
         style="fill:#ffffff;fill-opacity:1;fill-rule:nonzero;stroke:none"
         id="path893"
         inkscape:connector-curvature="0" />
    </g>
    <g
       id="g1731"
       transform="matrix(1.5877786,0,0,1.5877786,-3.9166823,-15.307388)">
      <g
         id="g1663">
        <path
           inkscape:connector-curvature="0"
           id="path881"
           style="fill:#231f20;fill-opacity:1;fill-rule:nonzero;stroke:none;stroke-width:0.35277778"
           d="m 26.11997,4.7132 v 0 c -0.422628,-7.056e-4 -2.619728,0.035983 -4.367389,0.7535333 -1.304925,0.5348111 -2.315986,1.1486444 -2.822575,1.4813139 -0.461786,-0.1820334 -1.252008,-0.4318 -2.092325,-0.4318 -0.05539,0 -0.109714,7.055e-4 -0.164394,0.00353 -0.943328,0.036689 -1.909939,0.2088444 -2.334683,0.2942166 C 13.847184,6.6263138 12.555665,6.1214889 11.859987,5.7447222 11.087051,5.3266805 9.6639454,4.8603083 8.9157037,4.8603083 c -0.6448778,0 -0.8770055,0.3520722 -0.9577916,0.5626806 -0.2621139,0.6798027 0.4469694,3.0331832 1.0897305,3.9976777 0.1788583,0.2681111 0.3178528,0.4554361 0.4198055,0.5926664 0.2257778,0.303742 0.2257778,0.303742 0.2804584,0.797631 0.051858,0.470605 -0.2504722,1.262591 -0.5171722,1.961444 -0.1393473,0.366889 -0.2843389,0.745067 -0.3912306,1.105606 -0.396875,1.331383 -0.6297083,3.097036 1.1020778,4.954411 1.9822585,2.12478 4.9494725,2.480733 6.5419105,2.503664 0.178153,0.0014 0.371123,0.0042 0.574675,0.0042 3.965223,0 6.531681,-0.658636 7.84472,-2.010481 1.7526,-1.805164 2.345266,-2.7178 2.639483,-4.91243 0.192617,-1.433336 -0.187325,-2.416528 -0.522111,-2.973564 0.386292,-0.576086 0.932039,-1.6382999 1.0795,-3.1933443 C 28.354817,5.5573972 27.412548,4.9093444 26.827642,4.7632944 26.772609,4.7498889 26.625501,4.7132 26.11997,4.7132 m 0,0.7387167 c 0.274461,0 0.463903,0.011642 0.529167,0.027869 0.27693,0.069144 0.922866,0.508 0.715433,2.700161 -0.207786,2.1925143 -1.269647,3.2547283 -1.269647,3.2547283 0,0 0.98178,0.899936 0.715786,2.885016 -0.2667,1.984375 -0.762,2.769659 -2.438047,4.495448 -1.536347,1.581855 -5.11422,1.787172 -7.314495,1.787172 -0.199672,0 -0.389466,-0.0021 -0.564091,-0.0056 -2.0955,-0.02928 -4.477808,-0.6223 -6.012392,-2.268008 C 8.9467482,16.682597 9.2240315,15.173414 9.5468231,14.088622 9.8699676,13.004183 10.585754,11.665392 10.481684,10.729825 10.377615,9.7939054 10.30847,9.9808777 9.6625343,9.0114443 9.0158926,8.0416583 8.5318815,5.9877861 8.6468871,5.6875722 c 0.023989,-0.061736 0.1213555,-0.089606 0.2688166,-0.089606 0.5640917,0 1.8616083,0.4011084 2.5929163,0.7972778 0.923573,0.498475 2.770011,1.1849805 2.770011,1.1849805 0,0 1.246011,-0.2769305 2.422878,-0.3224388 0.04586,-0.00212 0.09031,-0.00282 0.136172,-0.00282 1.12642,0 2.172053,0.5330472 2.172053,0.5330472 0,0 1.223081,-0.899936 3.023658,-1.6379471 1.37795,-0.5665611 3.188759,-0.6988528 4.086578,-0.6981472" />
        <g
           id="g939"
           transform="matrix(0.35277777,0,0,-0.35277777,7.60672,17.28708)">
          <path
             d="M 0,0 C -0.105,0 -0.212,0.018 -0.316,0.049 -0.849,0.226 -1.155,0.767 -1.002,1.305 -0.942,1.519 -0.559,2.63 1.136,3.689 2.843,4.759 3.879,4.583 4.157,4.5 4.712,4.341 5.031,3.76 4.87,3.205 4.717,2.675 4.184,2.363 3.653,2.469 3.588,2.475 3.112,2.459 2.249,1.919 1.229,1.277 1.002,0.703 0.999,0.694 0.839,0.274 0.431,0 0,0"
             style="fill:#231f20;fill-opacity:1;fill-rule:nonzero;stroke:none"
             id="path941"
             inkscape:connector-curvature="0" />
        </g>
        <g
           id="g943"
           transform="matrix(0.35277777,0,0,-0.35277777,8.96957,20.11054)">
          <path
             d="M 0,0 C -0.212,0 -0.425,0.064 -0.608,0.196 -1.077,0.534 -1.186,1.183 -0.851,1.652 -0.82,1.695 -0.084,2.71 1.335,3.778 L 2.646,4.759 C 3.109,5.106 3.763,5.012 4.11,4.551 4.457,4.09 4.363,3.43 3.9,3.085 L 2.592,2.104 C 1.446,1.244 0.855,0.439 0.851,0.432 0.646,0.149 0.325,0 0,0"
             style="fill:#231f20;fill-opacity:1;fill-rule:nonzero;stroke:none"
             id="path945"
             inkscape:connector-curvature="0" />
        </g>
        <g
           id="g959"
           transform="matrix(0.35277777,0,0,-0.35277777,24.17934,19.41963)">
          <path
             d="M 0,0 C 0,0 1.7,-2.616 3.336,-1.503 4.972,-0.393 2.159,2.291 2.159,2.291 Z"
             style="fill:#231f20;fill-opacity:1;fill-rule:nonzero;stroke:none"
             id="path961"
             inkscape:connector-curvature="0" />
        </g>
      </g>
      <g
         id="g1693">
        <g
           id="g875"
           transform="matrix(0.35277777,0,0,-0.35277777,14.27867,7.58037)">
          <path
             d="m 0,0 c 0,0 -5.234,1.947 -7.853,3.36 -2.615,1.415 -7.783,2.856 -8.111,2.006 -0.327,-0.852 1.046,-6.673 2.879,-9.423 1.831,-2.747 2.027,-2.217 2.322,-4.871 0.295,-2.651 -1.734,-6.447 -2.65,-9.52 -0.915,-3.075 -1.701,-7.354 2.65,-12.019 4.35,-4.665 11.103,-6.347 17.043,-6.429 5.939,-0.087 17.583,0.157 22.333,5.049 4.751,4.893 6.155,7.118 6.91,12.743 0.755,5.627 -2.028,8.178 -2.028,8.178 0,0 3.01,3.011 3.599,9.226 0.588,6.214 -1.243,7.458 -2.029,7.655 -0.786,0.194 -7.982,0.194 -13.083,-1.9 -5.104,-2.092 -8.571,-4.643 -8.571,-4.643 0,0 -3.206,1.634 -6.543,1.503 C 3.532,0.785 0,0 0,0"
             style="fill:#ffffff;fill-opacity:1;fill-rule:nonzero;stroke:none"
             id="path877"
             inkscape:connector-curvature="0" />
        </g>
        <g
           id="g1638">
          <g
             transform="matrix(0.35277777,0,0,-0.35277777,12.10912,11.06423)"
             id="g895">
            <path
               inkscape:connector-curvature="0"
               id="path897"
               style="fill:#231f20;fill-opacity:1;fill-rule:nonzero;stroke:none"
               d="m 0,0 c -0.801,0 -2.495,-1.225 -2.619,-5.007 -0.046,-1.419 0.276,-2.524 0.928,-3.197 0.589,-0.608 1.27,-0.7 1.624,-0.7 0.228,0 0.45,0.037 0.641,0.106 0.453,0.162 1.015,0.343 1.571,0.518 0.505,0.163 1.183,0.381 1.642,0.547 C 3.399,-7.397 2.83,-6.84 2.231,-5.831 1.793,-5.089 1.573,-4.008 1.359,-2.959 1.076,-1.572 0.756,0 0,0 m -0.067,-9.948 c -0.898,0 -1.742,0.359 -2.376,1.016 -0.596,0.617 -1.292,1.8 -1.22,3.961 0.144,4.413 2.267,6.015 3.663,6.015 1.611,0 2.005,-1.929 2.385,-3.795 0.196,-0.962 0.399,-1.956 0.746,-2.544 0.636,-1.07 1.203,-1.535 1.544,-1.813 0.253,-0.208 0.492,-0.405 0.492,-0.745 0,-0.541 -0.473,-0.708 -2.704,-1.424 C 1.92,-9.45 1.37,-9.625 0.926,-9.784 0.623,-9.894 0.28,-9.948 -0.067,-9.948" />
          </g>
          <g
             transform="matrix(0.35277777,0,0,-0.35277777,12.6858,11.96494)"
             id="g899">
            <path
               inkscape:connector-curvature="0"
               id="path901"
               style="fill:#231f20;fill-opacity:1;fill-rule:nonzero;stroke:none"
               d="M 0,0 C 0,0 -1.113,-1.178 -1.047,-3.729 -0.981,-6.28 0,-6.74 0,-6.74 c 0,0 0.589,1.571 0.653,3.077 C 0.719,-2.157 0,0 0,0" />
          </g>
        </g>
        <g
           id="g1632">
          <g
             transform="matrix(0.35277777,0,0,-0.35277777,16.21686,13.88006)"
             id="g883">
            <path
               inkscape:connector-curvature="0"
               id="path885"
               style="fill:#ffffff;fill-opacity:1;fill-rule:nonzero;stroke:none"
               d="M 0,0 C -0.26,-1.05 2.485,-2.946 7.393,-2.879 12.3,-2.814 15.703,2.42 16.618,3.207 17.534,3.99 16.444,8.176 9.988,8.832 3.534,9.485 0.262,1.046 0,0" />
          </g>
          <g
             transform="matrix(0.35277777,0,0,-0.35277777,19.49092,10.93624)"
             id="g887">
            <path
               inkscape:connector-curvature="0"
               id="path889"
               style="fill:#231f20;fill-opacity:1;fill-rule:nonzero;stroke:none"
               d="m 0,0 c -5.428,0 -8.445,-7.153 -8.772,-8.472 -0.007,-0.026 0.005,-0.142 0.148,-0.324 0.599,-0.766 2.822,-1.906 6.49,-1.906 l 0.238,0.002 c 3.774,0.049 6.69,3.449 8.089,5.085 0.351,0.407 0.606,0.703 0.804,0.872 0.065,0.056 0.186,0.4 -0.003,1.013 -0.48,1.522 -2.395,3.298 -6.338,3.697 C 0.433,-0.014 0.215,0 0,0 m -2.134,-11.75 c -3.807,0 -6.417,1.162 -7.314,2.31 -0.404,0.52 -0.408,0.952 -0.34,1.221 0.396,1.584 3.894,9.907 10.549,9.226 4.45,-0.449 6.652,-2.579 7.23,-4.424 0.283,-0.9 0.163,-1.711 -0.314,-2.119 C 7.54,-5.656 7.283,-5.952 6.988,-6.298 5.489,-8.046 2.365,-11.691 -1.88,-11.748 Z" />
          </g>
          <path
             d="m 20.11721,11.4568 c 0,0 -0.43815,0.669572 -0.369358,1.696508 0.06914,1.027289 0.369358,1.441803 0.369358,1.441803 0,0 0.346075,-0.899936 0.323144,-1.752953 C 20.417424,11.988436 20.11721,11.4568 20.11721,11.4568"
             style="fill:#231f20;fill-opacity:1;fill-rule:nonzero;stroke:none;stroke-width:0.35277778"
             id="path905"
             inkscape:connector-curvature="0" />
        </g>
        <path
           inkscape:connector-curvature="0"
           id="path909"
           style="fill:#231f20;fill-opacity:1;fill-rule:nonzero;stroke:none;stroke-width:0.35277778"
           d="m 11.50844,15.44964 c 0,0 0.485069,-0.230717 1.593144,-0.230717 1.10737,0 1.776589,0.230717 1.776589,0.230717 0,0 -1.384652,0.577497 -1.684514,0.623711 -0.300213,0.04586 -1.685219,-0.623711 -1.685219,-0.623711" />
        <path
           inkscape:connector-curvature="0"
           id="path913"
           style="fill:#231f20;fill-opacity:1;fill-rule:nonzero;stroke:none;stroke-width:0.35277778"
           d="m 15.77967,18.53613 c -0.969433,0 -1.782233,-0.218722 -1.827389,-0.231069 l 0.09807,-0.356659 c 0.01411,0.0035 1.40582,0.378884 2.662767,0.136525 1.198033,-0.232128 1.582914,-1.018822 1.598436,-1.052689 l 0.335139,0.156634 c -0.01905,0.03951 -0.471311,0.989189 -1.863725,1.2573 -0.336903,0.06526 -0.678744,0.08996 -1.0033,0.08996" />
        <g
           id="g915"
           transform="matrix(0.35277777,0,0,-0.35277777,10.32935,11.7877)">
          <path
             d="M 0,0 -0.969,0.394 C -0.924,0.5 0.138,3.067 2.665,5.786 4.499,7.762 6.86,8.812 6.96,8.855 L 7.381,7.896 C 7.359,7.885 5.114,6.887 3.432,5.077 1.044,2.504 0.011,0.025 0,0"
             style="fill:#231f20;fill-opacity:1;fill-rule:nonzero;stroke:none"
             id="path917"
             inkscape:connector-curvature="0" />
        </g>
        <path
           inkscape:connector-curvature="0"
           id="path921"
           style="fill:#1a1a1a;fill-opacity:1;fill-rule:nonzero;stroke:none;stroke-width:0.35277778"
           d="M 9.20075,6.67966 10.839403,9.1258211 10.537778,9.633821 Z" />
        <path
           inkscape:connector-curvature="0"
           id="path925"
           style="fill:#000000;fill-opacity:1;fill-rule:nonzero;stroke:none;stroke-width:0.35277778"
           d="m 20.80985,8.91793 c 0,0 0.877006,0.9235722 2.123369,1.524 1.246011,0.599017 1.938161,0.807861 1.938161,0.807861 0,0 0.900642,-0.923572 1.131359,-2.331861 0.230716,-1.4082889 0.299861,-2.2842361 0,-2.4690916 C 25.702525,6.2636301 24.617733,6.2414051 23.371722,6.9794162 22.125358,7.7181328 21.709786,8.1569884 20.80985,8.91793" />
        <path
           inkscape:connector-curvature="0"
           id="path929"
           style="fill:#231f20;fill-opacity:1;fill-rule:nonzero;stroke:none;stroke-width:0.35277778"
           d="m 18.66355,8.26783 c 0,0 -0.600428,-0.4854222 -2.030942,-0.4854222 -1.430866,0 -2.354086,0.4854222 -2.354086,0.4854222 h 0.599723 L 14.278522,9.3526216 15.848031,8.5676911 14.878245,9.8831994 17.278544,8.5288855 17.106389,8.982205 Z" />
        <path
           inkscape:connector-curvature="0"
           id="path933"
           style="fill:#231f20;fill-opacity:1;fill-rule:nonzero;stroke:none;stroke-width:0.35277778"
           d="m 24.5106,16.6191 c -0.0014,-7.06e-4 -0.379942,-0.340078 -1.798108,-0.619125 -1.468614,-0.289983 -2.352675,-0.17145 -2.361847,-0.170039 l -0.05151,-0.36583 c 0.03845,-0.0056 0.948972,-0.128764 2.484967,0.173919 1.533877,0.301978 1.945569,0.677686 1.98755,0.720019 z" />
        <g
           id="g935"
           transform="matrix(0.35277777,0,0,-0.35277777,24.95672,19.55742)">
          <path
             d="m 0,0 c -0.04,0.035 -4.071,3.602 -6.49,4.408 -2.433,0.813 -5.681,0.756 -5.713,0.759 l -0.02,1.046 c 0.137,0.002 3.455,0.059 6.064,-0.81 2.622,-0.875 6.683,-4.469 6.854,-4.622 z"
             style="fill:#231f20;fill-opacity:1;fill-rule:nonzero;stroke:none"
             id="path937"
             inkscape:connector-curvature="0" />
        </g>
      </g>
      <g
         id="g1668">
        <path
           inkscape:connector-curvature="0"
           id="path949"
           style="fill:#ffffff;fill-opacity:1;fill-rule:nonzero;stroke:none;stroke-width:0.35277778"
           d="m 16.35536,20.61886 c 0,0 -0.184856,-0.622653 -1.477081,-0.530225 -1.292577,0.09172 -2.399947,1.246011 -2.261658,2.238022 0.138642,0.993775 0.577145,1.385711 0.577145,1.385711 l 0.553861,-0.739422 c 0,0 -0.06879,0.715786 0.507294,1.315861 0.577145,0.600428 0.969433,0.784578 0.969433,0.784578 l 0.645937,-1.222728 c 0,0 0.854427,1.430514 1.085144,1.430514 0.231069,0 0.600075,-0.969433 1.061861,-1.684514 0.461433,-0.715786 1.447094,-1.107722 1.177572,-1.915936 C 18.395121,19.284654 16.35536,20.61886 16.35536,20.61886" />
        <path
           inkscape:connector-curvature="0"
           id="path953"
           style="fill:#000000;fill-opacity:1;fill-rule:nonzero;stroke:none;stroke-width:0.35277778"
           d="m 15.1301,19.34071 v 0 c -0.09525,0 -0.19685,0.0035 -0.304094,0.01023 -0.899231,0.06456 -1.780823,0.529872 -2.359378,1.244247 -0.460728,0.568325 -0.66675,1.220611 -0.581378,1.833386 0.166511,1.199797 0.709083,1.737783 0.815622,1.833386 l 0.600075,0.536575 0.198261,-0.263878 c 0.06597,0.09031 0.1397,0.179211 0.223661,0.265995 0.639234,0.665338 1.101373,0.900641 1.187098,0.940858 l 0.638527,0.301272 0.329142,-0.624064 0.06103,-0.116769 c 0.539397,0.717903 0.78105,0.717903 1.016705,0.717903 0.589845,0 0.860072,-0.512939 1.234017,-1.22555 0.136525,-0.259645 0.291747,-0.554567 0.448733,-0.796925 0.107597,-0.167923 0.28187,-0.333728 0.466725,-0.508 0.4445,-0.422981 1.1176,-1.061509 0.790222,-2.041878 -0.562327,-1.68522 -1.695097,-1.937103 -2.320219,-1.937103 -0.398992,0 -0.765528,0.09666 -1.049161,0.206022 C 16.233942,19.510396 15.791911,19.34071 15.1301,19.34071 m 0,0.738717 c 1.065036,0 1.225197,0.539397 1.225197,0.539397 0,0 0.566561,-0.369711 1.219553,-0.369711 0.585611,0 1.241778,0.29845 1.619955,1.431572 0.269523,0.808214 -0.716138,1.20015 -1.177572,1.915936 -0.461786,0.715081 -0.830791,1.684514 -1.061861,1.684514 -0.230716,0 -1.085144,-1.430514 -1.085144,-1.430514 l -0.645936,1.222728 c 0,0 -0.392289,-0.18415 -0.969081,-0.784578 -0.576439,-0.600075 -0.507647,-1.315861 -0.507647,-1.315861 l -0.553861,0.739422 c 0,0 -0.43815,-0.391936 -0.577145,-1.385711 -0.138288,-0.992011 0.969434,-2.1463 2.261659,-2.238022 0.08961,-0.0071 0.172861,-0.0092 0.251883,-0.0092" />
        <path
           inkscape:connector-curvature="0"
           id="path957"
           style="fill:#231f20;fill-opacity:1;fill-rule:nonzero;stroke:none;stroke-width:0.35277778"
           d="m 15.33993,22.68127 -0.369358,-7.06e-4 c 0,-0.02611 0.0046,-0.64523 0.376766,-1.215672 0.351367,-0.540103 1.053748,-1.266472 1.083028,-1.296811 l 0.265995,0.256822 c -0.0074,0.0071 -0.707673,0.73272 -1.040342,1.242131 -0.309739,0.474839 -0.316089,1.008592 -0.316089,1.014236" />
      </g>
    </g>
    <g
       id="g971"
       transform="matrix(0.35277777,0,0,-0.35277777,-140.04297,181.16323)">
      <g
         id="g973"
         clip-path="url(#clipPath977)">
        <g
           id="g979"
           transform="translate(170.6021,291.9937)">
          <path
             d="m 0,0 c 1.801,-3.423 0.529,-7.09 0.804,-10.634 0.226,-2.92 0.108,-5.866 0.142,-8.801 2.34,-2.572 1.621,-5.886 1.846,-8.837 0.948,-12.391 0.534,-24.834 1.113,-37.245 0.095,-2.4 0.732,-4.902 -1.277,-6.912 0.18,-13.136 0.661,-26.27 0.99,-39.399 0.146,-5.82 0.505,-11.693 0.563,-17.541 0.126,-12.72 0.691,-25.439 1.139,-38.137 0.329,-9.356 -0.235,-18.76 0.712,-28.047 1.012,-9.933 -0.128,-19.892 0.887,-29.73 0.838,-8.126 0.315,-16.196 0.669,-24.282 -2.525,0 -6.02,-0.984 -7.301,0.278 C -0.976,-248.042 0,-244.523 0,-242.002 0,-161.335 0,-80.667 0,0"
             style="fill:#ffffff;fill-opacity:1;fill-rule:evenodd;stroke:none"
             id="path981"
             inkscape:connector-curvature="0" />
        </g>
        <g
           id="g983"
           transform="translate(183.2515,205.1846)">
          <path
             d="M 0,0 C -0.031,-0.321 -0.063,-0.643 -0.095,-0.964 -1.834,3.443 -0.3,8.055 -0.941,12.53 c 0.32,-0.266 0.64,-0.531 0.96,-0.797 C 2.404,7.819 2.406,3.908 0,0"
             style="fill:#535353;fill-opacity:1;fill-rule:evenodd;stroke:none"
             id="path985"
             inkscape:connector-curvature="0" />
        </g>
      </g>
    </g>
  </g>
</svg>
