<?xml version="1.0" encoding="UTF-8" standalone="no"?>
<svg
   xmlns:dc="http://purl.org/dc/elements/1.1/"
   xmlns:cc="http://creativecommons.org/ns#"
   xmlns:rdf="http://www.w3.org/1999/02/22-rdf-syntax-ns#"
   xmlns:svg="http://www.w3.org/2000/svg"
   xmlns="http://www.w3.org/2000/svg"
   xmlns:sodipodi="http://sodipodi.sourceforge.net/DTD/sodipodi-0.dtd"
   xmlns:inkscape="http://www.inkscape.org/namespaces/inkscape"
   height="127.99986"
   width="142.28711"
   viewBox="0 0 133.39471 119.99974"
   version="1.1"
   id="svg4"
   sodipodi:docname="itch_iso.svg"
   inkscape:version="0.92.3 (2405546, 2018-03-11)">
  <metadata
     id="metadata10">
    <rdf:RDF>
      <cc:Work
         rdf:about="">
        <dc:format>image/svg+xml</dc:format>
        <dc:type
           rdf:resource="http://purl.org/dc/dcmitype/StillImage" />
        <dc:title></dc:title>
      </cc:Work>
    </rdf:RDF>
  </metadata>
  <defs
     id="defs8" />
  <sodipodi:namedview
     pagecolor="#ffffff"
     bordercolor="#666666"
     borderopacity="1"
     objecttolerance="10"
     gridtolerance="10"
     guidetolerance="10"
     inkscape:pageopacity="0"
     inkscape:pageshadow="2"
     inkscape:window-width="1920"
     inkscape:window-height="1001"
     id="namedview6"
     showgrid="false"
     fit-margin-top="0"
     fit-margin-left="0"
     fit-margin-right="0"
     fit-margin-bottom="0"
     inkscape:zoom="1.0023275"
     inkscape:cx="-5.8178805"
     inkscape:cy="117.72311"
     inkscape:window-x="-9"
     inkscape:window-y="-9"
     inkscape:window-maximized="1"
     inkscape:current-layer="svg4" />
  <path
     d="M 17.391132,0.7415444 C 11.572524,4.1963944 0.10872855,17.366144 0,20.819904 v 5.71695 c 0,7.24675 6.7737888,13.61607 12.924019,13.61607 7.384844,0 13.537793,-6.12033 13.538336,-13.38448 0,7.26415 5.942016,13.38448 13.327403,13.38448 7.38593,0 13.137127,-6.12033 13.137127,-13.38448 0,7.26415 6.318216,13.38448 13.703603,13.38448 h 0.133736 c 7.385931,0 13.704147,-6.12033 13.704147,-13.38448 0,7.26415 5.751741,13.38448 13.136584,13.38448 7.385385,0 13.327405,-6.12033 13.327405,-13.38448 0,7.26415 6.15403,13.38448 13.53833,13.38448 6.15023,0 12.92402,-6.36823 12.92402,-13.61607 v -5.71695 C 133.28598,17.365594 121.82219,4.1953044 116.00467,0.7415444 97.919847,0.1065744 85.382358,-0.0032456 66.696813,-5.2559558e-4 48.011811,0.0014744 22.537798,0.2930444 17.390045,0.7415444 Z M 52.833378,36.739934 a 15.235588,15.235588 0 0 1 -2.598612,3.34612 c -2.7878,2.72583 -6.609065,4.41547 -10.821753,4.41547 a 15.484033,15.484033 0 0 1 -10.844586,-4.41764 c -1.010088,-0.98943 -1.777712,-2.04736 -2.480642,-3.27925 l -0.0033,0.002 c -0.702386,1.23407 -1.680943,2.29146 -2.693206,3.28197 a 15.493819,15.493819 0 0 1 -10.844586,4.41438 c -0.507762,0 -1.036183,-0.14026 -1.463486,-0.28704 -0.593658,6.1823 -0.844277,12.09061 -0.932891,16.39844 l -0.0011,0.0245 c -0.01087,2.18762 -0.02175,3.98654 -0.03262,6.48566 0.114165,12.97132 -1.2846276,42.042066 5.719122,49.184986 10.853284,2.53066 30.824545,3.68318 50.860499,3.69025 h 0.0033 c 20.03541,-0.007 40.006673,-1.15959 50.859963,-3.69025 7.00375,-7.14346 5.60495,-36.214216 5.71912,-49.185526 -0.012,-2.49858 -0.0217,-4.2975 -0.0326,-6.48566 l -0.002,-0.0245 c -0.0881,-4.30892 -0.33869,-10.21668 -0.93235,-16.39899 -0.4273,0.14678 -0.95518,0.28704 -1.46349,0.28704 a 15.493819,15.493819 0 0 1 -10.84458,-4.41437 c -1.01226,-0.99052 -1.99082,-2.04736 -2.69375,-3.28198 l -0.003,-0.002 c -0.70348,1.23189 -1.47056,2.29037 -2.48064,3.27925 a 15.482946,15.482946 0 0 1 -10.844051,4.4171 c -4.212144,0 -8.033953,-1.69073 -10.821753,-4.41601 a 15.235588,15.235588 0 0 1 -2.598612,-3.34612 15.216561,15.216561 0 0 1 -2.574693,3.34612 15.488382,15.488382 0 0 1 -10.845673,4.41655 c -0.146783,0 -0.293567,-0.007 -0.44035,-0.0109 h -0.0038 c -0.146783,0.004 -0.293567,0.0109 -0.441981,0.0109 a 15.488382,15.488382 0 0 1 -10.845674,-4.41601 15.217648,15.217648 0 0 1 -2.574692,-3.34612 z m -11.137065,14.4011 -0.0011,0.005 h 0.0082 c 4.410574,0.009 8.328607,0 13.183337,5.29834 3.820721,-0.40067 7.813234,-0.60073 11.809008,-0.59475 h 0.0033 c 3.995774,-0.005 7.988287,0.19408 11.809552,0.59475 4.85473,-5.29889 8.772763,-5.28965 13.183337,-5.29834 h 0.0076 l -0.0011,-0.005 c 2.083782,0 10.419463,0 16.227743,16.31309 l 6.23884,22.37905 c 4.62314,16.648516 -1.48034,17.055706 -9.09351,17.070386 -11.290378,-0.42024 -17.541726,-8.619456 -17.541726,-16.817586 -6.249717,1.02422 -13.54051,1.53633 -20.831304,1.53687 h -0.0033 c -7.291337,0 -14.58213,-0.51265 -20.831304,-1.53687 0,8.19813 -6.251892,16.397346 -17.541721,16.817586 -7.613173,-0.0147 -13.716107,-0.42133 -9.092969,-17.070386 l 6.240476,-22.37851 C 31.277943,51.141574 39.613617,51.141574 41.6974,51.141574 Z m 24.999412,12.82018 v 0.003 c -0.01087,0.0109 -11.885661,10.91634 -14.020547,14.79523 l 7.776266,-0.3115 v 6.7814 c 0,0.31748 3.12051,0.1881 6.244281,0.0435 h 0.0033 c 3.122684,0.14461 6.243737,0.27399 6.243737,-0.0435 v -6.7814 l 7.776266,0.3115 C 78.583562,74.880824 66.698443,63.964484 66.698443,63.964484 v -0.003 l -0.0016,0.001 z"
     id="path2"
     inkscape:connector-curvature="0"
     style="color:#000000;stroke-width:0.54364276" />
</svg>
