<?xml version="1.0" encoding="UTF-8" standalone="no"?>
<svg
   xmlns:dc="http://purl.org/dc/elements/1.1/"
   xmlns:cc="http://creativecommons.org/ns#"
   xmlns:rdf="http://www.w3.org/1999/02/22-rdf-syntax-ns#"
   xmlns:svg="http://www.w3.org/2000/svg"
   xmlns="http://www.w3.org/2000/svg"
   xmlns:sodipodi="http://sodipodi.sourceforge.net/DTD/sodipodi-0.dtd"
   xmlns:inkscape="http://www.inkscape.org/namespaces/inkscape"
   id="Layer_1"
   data-name="Layer 1"
   viewBox="0 0 256 128"
   version="1.1"
   sodipodi:docname="resh_logo.svg"
   width="256"
   height="128"
   inkscape:version="0.92.3 (2405546, 2018-03-11)">
  <metadata
     id="metadata79">
    <rdf:RDF>
      <cc:Work
         rdf:about="">
        <dc:format>image/svg+xml</dc:format>
        <dc:type
           rdf:resource="http://purl.org/dc/dcmitype/StillImage" />
        <dc:title>retroshooti_logo</dc:title>
      </cc:Work>
    </rdf:RDF>
  </metadata>
  <sodipodi:namedview
     pagecolor="#ffffff"
     bordercolor="#666666"
     borderopacity="1"
     objecttolerance="10"
     gridtolerance="10"
     guidetolerance="10"
     inkscape:pageopacity="0"
     inkscape:pageshadow="2"
     inkscape:window-width="1920"
     inkscape:window-height="1001"
     id="namedview77"
     showgrid="false"
     fit-margin-top="0"
     fit-margin-left="0"
     fit-margin-right="0"
     fit-margin-bottom="0"
     inkscape:zoom="0.36035156"
     inkscape:cx="131.81572"
     inkscape:cy="256"
     inkscape:window-x="-9"
     inkscape:window-y="-9"
     inkscape:window-maximized="1"
     inkscape:current-layer="Layer_1" />
  <defs
     id="defs4">
    <style
       id="style2">.cls-1,.cls-2,.cls-3,.cls-4{fill-rule:evenodd;}.cls-2{fill:#ed2024;}.cls-3{fill:#3fbced;}.cls-4{fill:#fff;}</style>
  </defs>
  <title
     id="title6">retroshooti_logo</title>
  <path
     class="cls-1"
     d="m 0,0 h 48 l 8,8 V 0 h 48 v 4 h 4 V 0 h 40 v 4 h 4 V 0 h 36 l 8,8 V 0 h 60 v 60 h -8 v 48 h 8 v 20 h -48 v -4 h -8 v 4 h -28 v -8 h -4 l -4,8 h -32 l -4,-8 -4,8 H 92 l -4,-8 v 8 H 68 v -4 h -4 v 4 H 44 v -4 l -4,4 H 8 L 0,120 V 100 H 16 L 0,68 V 52 L 4,48 H 0 Z"
     id="path8"
     inkscape:connector-curvature="0"
     style="fill-rule:evenodd;stroke-width:0.25" />
  <path
     class="cls-2"
     d="m 8,104 v 12 l 4,4 h 16 l 8,-8 V 100 L 20,68 V 56 h 8 v 8 h 8 V 52 L 32,48 H 12 l -4,4 v 16 l 16,32 v 4 z"
     id="path10"
     inkscape:connector-curvature="0"
     style="fill:#ed2024;fill-rule:evenodd;stroke-width:0.25" />
  <path
     class="cls-2"
     d="M 48,120 H 60 V 88 h 8 v 32 h 8 V 48 H 68 V 80 H 60 V 48 H 48 Z"
     id="path12"
     inkscape:connector-curvature="0"
     style="fill:#ed2024;fill-rule:evenodd;stroke-width:0.25" />
  <path
     class="cls-2"
     d="m 96,48 h 8 l -4,8 v 56 h 8 V 56 h 8 v 56 l -4,8 H 96 l -4,-8 V 56 Z"
     id="path14"
     inkscape:connector-curvature="0"
     style="fill:#ed2024;fill-rule:evenodd;stroke-width:0.25" />
  <path
     class="cls-2"
     d="m 136,120 -4,-8 V 56 l 4,-8 h 8 l -4,8 v 56 l 4,8 z"
     id="path16"
     inkscape:connector-curvature="0"
     style="fill:#ed2024;fill-rule:evenodd;stroke-width:0.25" />
  <path
     class="cls-2"
     d="m 172,48 v 8 h 8 v 64 h 8 V 48 Z"
     id="path18"
     inkscape:connector-curvature="0"
     style="fill:#ed2024;fill-rule:evenodd;stroke-width:0.25" />
  <path
     class="cls-2"
     d="m 212,48 v 8 h 8 v 56 h -8 v 8 h 16 V 48 Z"
     id="path20"
     inkscape:connector-curvature="0"
     style="fill:#ed2024;fill-rule:evenodd;stroke-width:0.25" />
  <path
     class="cls-2"
     d="M 20,44 V 32 h 20 v 12 h 8 V 32 L 44,24 V 12 H 36 V 28 H 20 V 8 H 8 v 36"
     id="path22"
     inkscape:connector-curvature="0"
     style="fill:#ed2024;fill-rule:evenodd;stroke-width:0.25" />
  <path
     class="cls-2"
     d="m 60,8 v 36 h 8 V 8 Z"
     id="path24"
     inkscape:connector-curvature="0"
     style="fill:#ed2024;fill-rule:evenodd;stroke-width:0.25" />
  <path
     class="cls-2"
     d="m 108,8 v 8 h 12 v 28 h 8 V 8 Z"
     id="path26"
     inkscape:connector-curvature="0"
     style="fill:#ed2024;fill-rule:evenodd;stroke-width:0.25" />
  <path
     class="cls-2"
     d="M 152,44 V 8 h 32 v 16 l 4,4 v 16 h -8 V 32 h -4 V 16 h -16 v 28 z"
     id="path28"
     inkscape:connector-curvature="0"
     style="fill:#ed2024;fill-rule:evenodd;stroke-width:0.25" />
  <path
     class="cls-2"
     d="m 200,44 h 8 V 12 h 20 v 32 h 8 V 8 h -36 z"
     id="path30"
     inkscape:connector-curvature="0"
     style="fill:#ed2024;fill-rule:evenodd;stroke-width:0.25" />
  <path
     class="cls-3"
     d="m 20,44 h 8 V 32 h 20 v 12 h 8 V 28 L 52,24 V 12 L 48,8 H 44 V 24 H 28 V 12 h -8 z"
     id="path32"
     inkscape:connector-curvature="0"
     style="fill:#3fbced;fill-rule:evenodd;stroke-width:0.25" />
  <path
     class="cls-3"
     d="m 68,44 h 36 V 36 H 76 V 28 H 92 V 20 H 76 v -4 h 28 V 8 H 68 Z"
     id="path34"
     inkscape:connector-curvature="0"
     style="fill:#3fbced;fill-rule:evenodd;stroke-width:0.25" />
  <path
     class="cls-3"
     d="m 128,44 h 8 V 16 h 12 V 8 h -20 z"
     id="path36"
     inkscape:connector-curvature="0"
     style="fill:#3fbced;fill-rule:evenodd;stroke-width:0.25" />
  <path
     class="cls-3"
     d="m 160,44 h 8 V 32 h 20 v 12 h 8 V 28 l -4,-4 V 12 l -4,-4 h -4 V 24 H 168 V 12 h -8 z"
     id="path38"
     inkscape:connector-curvature="0"
     style="fill:#3fbced;fill-rule:evenodd;stroke-width:0.25" />
  <path
     class="cls-3"
     d="m 216,12 v 24 h 24 V 8 h 8 V 44 H 208 V 12 Z"
     id="path40"
     inkscape:connector-curvature="0"
     style="fill:#3fbced;fill-rule:evenodd;stroke-width:0.25" />
  <path
     class="cls-3"
     d="m 28,120 h 12 l 4,-4 V 100 L 28,68 V 56 h 8 v 8 h 8 V 52 L 40,48 H 24 l -4,4 v 16 l 16,32 v 12 z"
     id="path42"
     inkscape:connector-curvature="0"
     style="fill:#3fbced;fill-rule:evenodd;stroke-width:0.25" />
  <path
     class="cls-3"
     d="M 76,120 V 48 h 8 v 72 z"
     id="path44"
     inkscape:connector-curvature="0"
     style="fill:#3fbced;fill-rule:evenodd;stroke-width:0.25" />
  <path
     class="cls-3"
     d="m 120,120 4,-8 V 56 l -4,-8 h -8 l 4,8 v 56 l -4,8 z"
     id="path46"
     inkscape:connector-curvature="0"
     style="fill:#3fbced;fill-rule:evenodd;stroke-width:0.25" />
  <path
     class="cls-3"
     d="m 140,116 h 8 V 56 h 8 v 56 l -4,8 h 8 l 4,-8 V 56 l -4,-8 h -16 l -4,8 z"
     id="path48"
     inkscape:connector-curvature="0"
     style="fill:#3fbced;fill-rule:evenodd;stroke-width:0.25" />
  <path
     class="cls-3"
     d="m 208,48 v 8 h -12 v 64 h -8 V 48 Z"
     id="path50"
     inkscape:connector-curvature="0"
     style="fill:#3fbced;fill-rule:evenodd;stroke-width:0.25" />
  <path
     class="cls-3"
     d="m 248,48 v 8 h -8 v 56 h 8 v 8 H 228 V 48 Z"
     id="path52"
     inkscape:connector-curvature="0"
     style="fill:#3fbced;fill-rule:evenodd;stroke-width:0.25" />
  <path
     class="cls-4"
     d="m 16,8 v 36 h 8 V 32 h 20 v 12 h 8 V 28 L 48,24 V 12 L 44,8 Z m 8,8 v 8 h 16 v -8 z"
     id="path54"
     inkscape:connector-curvature="0"
     style="fill:#ffffff;fill-rule:evenodd;stroke-width:0.25" />
  <path
     class="cls-4"
     d="m 64,8 v 36 h 36 V 36 H 72 V 28 H 88 V 20 H 72 v -4 h 28 V 8 Z"
     id="path56"
     inkscape:connector-curvature="0"
     style="fill:#ffffff;fill-rule:evenodd;stroke-width:0.25" />
  <path
     class="cls-4"
     d="m 132,16 h 12 V 8 h -32 v 8 h 12 v 28 h 8"
     id="path58"
     inkscape:connector-curvature="0"
     style="fill:#ffffff;fill-rule:evenodd;stroke-width:0.25" />
  <path
     class="cls-4"
     d="m 156,8 v 36 h 8 V 32 h 20 v 12 h 8 V 28 l -4,-4 V 12 l -4,-4 z m 8,8 v 8 h 16 v -8 z"
     id="path60"
     inkscape:connector-curvature="0"
     style="fill:#ffffff;fill-rule:evenodd;stroke-width:0.25" />
  <path
     class="cls-4"
     d="m 204,8 v 36 h 36 V 8 Z m 8,8 v 20 h 20 V 16 Z"
     id="path62"
     inkscape:connector-curvature="0"
     style="fill:#ffffff;fill-rule:evenodd;stroke-width:0.25" />
  <path
     class="cls-4"
     d="m 100,48 -4,8 v 56 l 4,8 h 16 l 4,-8 V 56 l -4,-8 z m 4,64 h 8 V 56 h -8 z"
     id="path64"
     inkscape:connector-curvature="0"
     style="fill:#ffffff;fill-rule:evenodd;stroke-width:0.25" />
  <path
     class="cls-4"
     d="m 144,112 h 8 V 56 h -8 z m -4,-64 -4,8 v 56 l 4,8 h 16 l 4,-8 V 56 l -4,-8 z"
     id="path66"
     inkscape:connector-curvature="0"
     style="fill:#ffffff;fill-rule:evenodd;stroke-width:0.25" />
  <path
     class="cls-4"
     d="m 32,64 h 8 V 52 L 36,48 H 20 l -4,4 v 16 l 16,32 v 12 h -8 v -8 h -8 v 12 l 4,4 h 16 l 4,-4 V 100 L 24,68 V 56 h 8 z"
     id="path68"
     inkscape:connector-curvature="0"
     style="fill:#ffffff;fill-rule:evenodd;stroke-width:0.25" />
  <path
     class="cls-4"
     d="m 56,48 v 72 h 8 V 88 h 8 v 32 h 8 V 48 H 72 V 80 H 64 V 48 Z"
     id="path70"
     inkscape:connector-curvature="0"
     style="fill:#ffffff;fill-rule:evenodd;stroke-width:0.25" />
  <path
     class="cls-4"
     d="m 176,48 v 8 h 8 v 64 h 8 V 56 h 8 v -8 z"
     id="path72"
     inkscape:connector-curvature="0"
     style="fill:#ffffff;fill-rule:evenodd;stroke-width:0.25" />
  <path
     class="cls-4"
     d="m 216,48 v 8 h 8 v 56 h -8 v 8 h 24 v -8 h -8 V 56 h 8 v -8 z"
     id="path74"
     inkscape:connector-curvature="0"
     style="fill:#ffffff;fill-rule:evenodd;stroke-width:0.25" />
</svg>
