<?xml version="1.0" encoding="UTF-8" standalone="no"?>
<!-- Generator: Adobe Illustrator 22.1.0, SVG Export Plug-In . SVG Version: 6.00 Build 0)  -->

<svg
   xmlns:dc="http://purl.org/dc/elements/1.1/"
   xmlns:cc="http://creativecommons.org/ns#"
   xmlns:rdf="http://www.w3.org/1999/02/22-rdf-syntax-ns#"
   xmlns:svg="http://www.w3.org/2000/svg"
   xmlns="http://www.w3.org/2000/svg"
   xmlns:sodipodi="http://sodipodi.sourceforge.net/DTD/sodipodi-0.dtd"
   xmlns:inkscape="http://www.inkscape.org/namespaces/inkscape"
   version="1.0"
   id="Layer_1"
   x="0px"
   y="0px"
   viewBox="0 0 288 48"
   xml:space="preserve"
   sodipodi:docname="shtr_logo.svg"
   width="288"
   height="48"
   inkscape:version="0.92.3 (2405546, 2018-03-11)"><metadata
   id="metadata23"><rdf:RDF><cc:Work
       rdf:about=""><dc:format>image/svg+xml</dc:format><dc:type
         rdf:resource="http://purl.org/dc/dcmitype/StillImage" /><dc:title></dc:title></cc:Work></rdf:RDF></metadata><defs
   id="defs21" /><sodipodi:namedview
   pagecolor="#ffffff"
   bordercolor="#666666"
   borderopacity="1"
   objecttolerance="10"
   gridtolerance="10"
   guidetolerance="10"
   inkscape:pageopacity="0"
   inkscape:pageshadow="2"
   inkscape:window-width="1920"
   inkscape:window-height="1001"
   id="namedview19"
   showgrid="false"
   inkscape:zoom="0.76875"
   inkscape:cx="61.788618"
   inkscape:cy="40"
   inkscape:window-x="-9"
   inkscape:window-y="-9"
   inkscape:window-maximized="1"
   inkscape:current-layer="Layer_1"
   fit-margin-top="0"
   fit-margin-left="0"
   fit-margin-right="0"
   fit-margin-bottom="0" />
<path
   d="M 28.8,9.600001 V 0 H 0 v 28.8 h 19.2 v 9.6 H 0 V 48 H 28.8 V 19.2 H 9.5999999 V 9.600001 Z M 20.399999,28.8 21.6,27.600001 V 40.8 H 2.3999999 v 4.8 L 1.2,46.8 V 39.6 H 20.399999 Z M 2.3999999,2.400001 V 26.4 L 1.2,27.600001 V 1.2 H 27.599999 L 26.4,2.400001 Z"
   id="path2"
   style="fill:#000000;stroke-width:0.60000002"
   inkscape:connector-curvature="0" />
<path
   d="M 57.6,0 V 19.2 H 48 V 0 H 38.399999 V 48 H 48 V 28.8 h 9.6 V 48 h 9.599999 V 0 Z M 40.8,2.400001 V 45.6 l -1.2,1.2 V 1.2 h 7.2 l -1.200001,1.200001 z m 23.999999,0 h -4.8 V 21.6 h -7.2 L 54,20.400001 h 4.8 V 1.2 H 66 Z"
   id="path4"
   style="fill:#000000;stroke-width:0.60000002"
   inkscape:connector-curvature="0" />
<path
   d="m 76.8,0 v 48 h 28.8 V 0 Z m 2.399999,9.600001 -1.2,1.199999 V 1.2 H 87.6 l -1.200001,1.200001 h -7.2 z m 7.2,0 h 9.6 V 38.4 h -9.6 z M 98.4,40.8 H 89.999999 L 91.2,39.6 h 5.999999 v -6 L 98.4,32.4 Z"
   id="path6"
   style="fill:#000000;stroke-width:0.60000002"
   inkscape:connector-curvature="0" />
<path
   d="M 115.2,0 V 48 H 144 V 0 Z M 117.6,9.600001 116.4,10.8 V 1.2 h 9.6 l -1.2,1.200001 h -7.2 z m 7.2,0 h 9.6 V 38.4 h -9.6 z M 136.8,40.8 h -8.4 l 1.2,-1.2 h 6 v -6 l 1.2,-1.2 z"
   id="path8"
   style="fill:#000000;stroke-width:0.60000002"
   inkscape:connector-curvature="0" />
<path
   d="m 153.48,0 0.12,9.600001 h 9.6 V 48 h 9.6 V 9.600001 h 9.59999 V 0 Z m 10.91999,2.400001 H 156 V 7.2 l -1.2,1.2 V 1.2 h 10.8 z"
   id="path10"
   style="fill:#000000;stroke-width:0.60000002"
   inkscape:connector-curvature="0" />
<path
   d="M 220.8,19.2 220.68,0 H 192 v 48 h 9.6 V 28.8 h 19.31999 L 220.8,48 h 9.6 V 19.2 Z M 194.4,2.400001 v 7.2 L 193.19999,10.8 V 1.2 H 202.8 l -1.2,1.200001 z m 7.2,7.2 h 9.59999 V 19.2 H 201.6 Z M 213.6,21.6 h -7.2 l 1.19999,-1.199999 H 212.4 V 15.6 l 1.2,-1.2 z"
   id="path12"
   style="fill:#000000;stroke-width:0.60000002"
   inkscape:connector-curvature="0" />
<path
   d="m 239.99999,0 v 48 h 9.36 V 0 Z m 7.2,2.400001 H 242.4 V 19.2 l -1.2,1.200001 V 1.2 h 7.2 z"
   id="path14"
   style="fill:#000000;stroke-width:0.60000002"
   inkscape:connector-curvature="0" />
<path
   d="M 288,9.600001 V 0 h -28.8 v 28.8 h 19.2 v 9.6 H 259.2 V 48 H 288 V 19.2 H 268.79999 V 9.600001 Z M 279.59999,28.8 280.8,27.600001 V 40.8 h -19.20001 v 4.8 L 260.4,46.8 v -7.2 h 19.19999 z m -18,-26.399999 V 26.4 L 260.4,27.600001 V 1.2 h 26.39999 L 285.6,2.400001 Z"
   id="path16"
   style="fill:#000000;stroke-width:0.60000002"
   inkscape:connector-curvature="0" />
</svg>